# Apple ModelIO OBJ File: platofrm-from-cinema-to-procreate
mtllib platofrm-from-cinema-to-procreate.mtl
g Extrude.1_default
v -8.72677 1.36214 -9.55631
v -5.75676 1.36214 -9.40555
v -5.75676 -5.63786 -9.40555
v -8.72677 -5.63786 -9.55631
v -2.9588 1.36214 -8.96953
v -2.9588 -5.63786 -8.96953
v -0.332418 1.36214 -8.27261
v -0.332418 -5.63786 -8.27261
v 2.12285 1.36214 -7.33915
v 2.12285 -5.63786 -7.33915
v 4.40748 1.36214 -6.19351
v 4.40748 -5.63786 -6.19351
v 6.52194 1.36214 -4.86007
v 6.52194 -5.63786 -4.86007
v 8.4667 1.36214 -3.36318
v 8.4667 -5.63786 -3.36318
v 10.5771 1.36214 -1.38548
v 10.5771 -5.63786 -1.38548
v 11.849 1.36214 0.023464
v 11.849 -5.63786 0.023464
v 13.2875 1.36214 1.86449
v 13.2875 -5.63786 1.86449
v 10.3143 1.36214 3.94726
v 10.3143 -5.63786 3.94726
v 7.34047 1.36214 6.02911
v 7.34047 -5.63786 6.02911
v 6.27696 1.36214 4.64836
v 6.27696 -5.63786 4.64836
v 5.07568 1.36214 3.34799
v 5.07568 -5.63786 3.34799
v 3.69074 1.36214 2.10106
v 3.69074 -5.63786 2.10106
v 2.20541 1.36214 0.999234
v 2.20541 -5.63786 0.999234
v 1.15062 1.36214 0.340007
v 1.15062 -5.63786 0.340007
v -0.004556 1.36214 -0.280057
v -0.004556 -5.63786 -0.280057
v -1.708 1.36214 -1.02236
v -1.708 -5.63786 -1.02236
v -3.33279 1.36214 -1.55894
v -3.33279 -5.63786 -1.55894
v -5.02897 1.36214 -1.95699
v -5.02897 -5.63786 -1.95699
v -7.00159 1.36214 -2.22611
v -7.00159 -5.63786 -2.22611
v -8.65699 1.36214 -2.29668
v -8.65699 -5.63786 -2.29668
vn 0.050694 0 -0.998714
vn 0.102474 0 -0.994736
vn 0.20551 0 -0.978655
vn 0.306339 0 -0.951923
vn 0.40233 0 -0.915495
vn 0.491424 0 -0.870921
vn 0.572306 0 -0.82004
vn 0.647634 0 -0.761951
vn 0.713661 0 -0.700492
vn 0.765616 0 -0.643298
vn 0.787986 0 -0.615688
vn 0.57375 0 0.819031
vn 0.573622 0 0.819121
vn 0.573493 0 0.81921
vn -0.792235 0 0.610216
vn -0.764152 0 0.645036
vn -0.702567 0 0.711617
vn -0.633155 0 0.774025
vn -0.56333 0 0.826232
vn -0.501739 0 0.865019
vn -0.436578 0 0.899666
vn -0.356914 0 0.934137
vn -0.271293 0 0.962497
vn -0.182026 0 0.983294
vn -0.088978 0 0.996034
vn -0.042591 0 0.999093
vn -0.999954 0 0.009612
vn 0 -1 0
vn 0 -0.999996 0
vn 0 1 0
vn 0 0.999996 0
vt 0.484646 0.45177
vt 0.484139 0.497496
vt 0.323638 0.495715
vt 0.324146 0.449989
vt 0.483636 0.542761
vt 0.320059 0.539966
vt 0.483141 0.587389
vt 0.322641 0.585608
vt 0.482655 0.631207
vt 0.322154 0.629426
vt 0.482179 0.674041
vt 0.321679 0.67226
vt 0.481717 0.715716
vt 0.321217 0.713935
vt 0.481269 0.756058
vt 0.320769 0.754277
vt 0.480754 0.802464
vt 0.320254 0.800683
vt 0.480426 0.832047
vt 0.319926 0.830266
vt 0.480034 0.867346
vt 0.319534 0.865565
vt 0.479359 0.928185
vt 0.318859 0.926404
vt 0.478684 0.989025
vt 0.318183 0.987244
vt 0.489482 0.016011
vt 0.489158 0.045221
vt 0.328658 0.04344
vt 0.328982 0.01423
vt 0.488829 0.074891
vt 0.328328 0.07311
vt 0.488482 0.106124
vt 0.327982 0.104343
vt 0.488138 0.137119
vt 0.327638 0.135338
vt 0.487907 0.157966
vt 0.327406 0.156185
vt 0.487663 0.179939
vt 0.327163 0.178158
vt 0.487317 0.211081
vt 0.326817 0.2093
vt 0.486999 0.239759
vt 0.326499 0.237978
vt 0.486675 0.268959
vt 0.326175 0.267178
vt 0.486305 0.302325
vt 0.325804 0.300544
vt 0.485996 0.330095
vt 0.325496 0.328314
vt 0.171629 0.455027
vt 0.171629 0.480507
vt 0.16774 0.510969
vt 0.160894 0.537254
vt 0.151072 0.562518
vt 0.136997 0.589102
vt 0.125 0.607194
vt 0.112089 0.623765
vt 0.090263 0.647194
vt 0.065296 0.669159
vt 0.039042 0.688331
vt 0.010975 0.70543
vt 0.057395 0.749995
vt 0.103833 0.79455
vt 0.141238 0.771437
vt 0.169711 0.75112
vt 0.209386 0.717607
vt 0.239105 0.686901
vt 0.265236 0.653677
vt 0.287267 0.61794
vt 0.304687 0.579697
vt 0.523951 0.329067
vt 0.552741 0.44952
vt 0.616882 0.442473
vt 0.677079 0.431037
vt 0.733344 0.41562
vt 0.78569 0.396631
vt 0.834127 0.374478
vt 0.878668 0.349569
vt 0.926989 0.316617
vt 0.956105 0.29312
vt 0.569173 0.32474
vt 0.989025 0.262396
vt 0.608051 0.318226
vt 0.645288 0.309384
vt 0.920781 0.227209
vt 0.684322 0.297101
vt 0.710788 0.286816
vt 0.734951 0.275865
vt 0.76897 0.257535
vt 0.800683 0.236764
vt 0.828183 0.21508
vt 0.852521 0.192036
usemtl default
f 1/1/1 2/2/2 3/3/2
f 1/1/1 3/3/2 4/4/1
f 2/2/2 5/5/3 6/6/3
f 2/2/2 6/6/3 3/3/2
f 5/5/3 7/7/4 8/8/4
f 5/5/3 8/8/4 6/6/3
f 7/7/4 9/9/5 10/10/5
f 7/7/4 10/10/5 8/8/4
f 9/9/5 11/11/6 12/12/6
f 9/9/5 12/12/6 10/10/5
f 11/11/6 13/13/7 14/14/7
f 11/11/6 14/14/7 12/12/6
f 13/13/7 15/15/8 16/16/8
f 13/13/7 16/16/8 14/14/7
f 15/15/8 17/17/9 18/18/9
f 15/15/8 18/18/9 16/16/8
f 17/17/9 19/19/10 20/20/10
f 17/17/9 20/20/10 18/18/9
f 19/19/10 21/21/11 22/22/11
f 19/19/10 22/22/11 20/20/10
f 21/21/12 23/23/13 24/24/13
f 21/21/12 24/24/13 22/22/12
f 23/23/13 25/25/14 26/26/14
f 23/23/13 26/26/14 24/24/13
f 25/27/15 27/28/16 28/29/16
f 25/27/15 28/29/16 26/30/15
f 27/28/16 29/31/17 30/32/17
f 27/28/16 30/32/17 28/29/16
f 29/31/17 31/33/18 32/34/18
f 29/31/17 32/34/18 30/32/17
f 31/33/18 33/35/19 34/36/19
f 31/33/18 34/36/19 32/34/18
f 33/35/19 35/37/20 36/38/20
f 33/35/19 36/38/20 34/36/19
f 35/37/20 37/39/21 38/40/21
f 35/37/20 38/40/21 36/38/20
f 37/39/21 39/41/22 40/42/22
f 37/39/21 40/42/22 38/40/21
f 39/41/22 41/43/23 42/44/23
f 39/41/22 42/44/23 40/42/22
f 41/43/23 43/45/24 44/46/24
f 41/43/23 44/46/24 42/44/23
f 43/45/24 45/47/25 46/48/25
f 43/45/24 46/48/25 44/46/24
f 45/47/25 47/49/26 48/50/26
f 45/47/25 48/50/26 46/48/25
f 47/49/27 1/1/27 4/4/27
f 47/49/27 4/4/27 48/50/27
f 48/51/28 4/4/28 3/3/28
f 46/52/28 48/51/28 3/3/28
f 44/53/28 46/52/28 3/3/28
f 42/54/28 44/53/28 3/3/28
f 40/55/28 42/54/28 3/3/28
f 38/56/28 40/55/28 3/3/28
f 36/57/28 38/56/28 3/3/28
f 34/58/28 36/57/28 3/3/28
f 32/59/28 34/58/28 3/3/28
f 30/60/28 32/59/28 3/3/28
f 28/61/28 30/60/28 3/3/28
f 28/61/28 3/3/28 6/6/28
f 26/62/29 28/61/28 6/6/28
f 24/63/28 26/62/29 6/6/28
f 22/64/28 24/63/28 6/6/28
f 20/65/28 22/64/28 6/6/28
f 18/66/28 20/65/28 6/6/28
f 16/67/28 18/66/28 6/6/28
f 14/68/28 16/67/28 6/6/28
f 12/69/28 14/68/28 6/6/28
f 10/70/28 12/69/28 6/6/28
f 8/71/28 10/70/28 6/6/28
f 1/1/30 47/49/30 45/72/30
f 2/73/30 1/1/30 45/72/30
f 5/74/30 2/73/30 45/72/30
f 7/75/30 5/74/30 45/72/30
f 9/76/30 7/75/30 45/72/30
f 11/77/30 9/76/30 45/72/30
f 13/78/30 11/77/30 45/72/30
f 15/79/30 13/78/30 45/72/30
f 17/80/30 15/79/30 45/72/30
f 19/81/30 17/80/30 45/72/30
f 19/81/30 45/72/30 43/82/30
f 21/83/30 19/81/30 43/82/30
f 21/83/30 43/82/30 41/84/30
f 21/83/30 41/84/30 39/85/30
f 23/86/30 21/83/30 39/85/30
f 23/86/30 39/85/30 37/87/30
f 23/86/30 37/87/30 35/88/30
f 23/86/30 35/88/30 33/89/30
f 23/86/30 33/89/30 31/90/30
f 23/86/30 31/90/30 29/91/30
f 23/86/30 29/91/30 27/92/30
f 25/93/31 23/86/30 27/92/30
s off
