# WaveFront *.obj file (generated by Cinema 4D)

mtllib ./platform6.mtl

v -0.366446 49.908004 -296.876720
v -0.371815 49.908004 -295.700807
v -0.371815 -0.091996 -295.700807
v -0.366446 -0.091996 -296.876720
v -0.809578 49.908004 -296.704516
v 4.360172 -0.091996 -295.831548
v 3.217533 -0.091996 -239.983921
v -0.809578 -0.091996 -296.704516
v -0.981788 49.908004 -266.667048
v 5.202678 -0.091996 -296.651905
v 4.393280 -0.091996 -239.963426
v -0.981788 -0.091996 -266.667048
v -0.968853 49.908004 -240.020567
v 4.360172 49.908004 -295.831548
v 3.217533 49.908004 -239.983921
v -0.968853 -0.091996 -240.020567
v -0.968853 49.908004 -216.020063
v 5.202678 49.908004 -296.651905
v 4.393280 49.908004 -239.963426
v -0.968853 -0.091996 -216.020063
v -0.968853 49.908004 -194.430064
v 4.850716 -0.091996 -266.609962
v 3.968770 -0.091996 -215.974474
v -0.968853 -0.091996 -194.430064
v -0.968853 49.908004 -175.003768
v 3.674967 -0.091996 -266.630345
v 2.793024 -0.091996 -215.995097
v -0.968853 -0.091996 -175.003768
v -0.968853 49.908004 -157.505991
v 3.674967 49.908004 -266.630345
v 2.793024 49.908004 -215.995097
v -0.968853 -0.091996 -157.505991
v -0.796642 49.908004 -141.357526
v 4.850716 49.908004 -266.609962
v 3.968770 49.908004 -215.974474
v -0.796642 -0.091996 -141.357526
v -0.373491 49.908004 -141.185332
v -0.364771 49.908004 -142.361226
v -0.364771 -0.091996 -142.361226
v -0.373491 -0.091996 -141.185332
v 2.497443 49.908004 -141.314320
v 1.679666 49.908004 -142.159330
v 1.679666 -0.091996 -142.159330
v 2.497443 -0.091996 -141.314320
v 2.958651 49.908004 -157.472266
v 1.782902 49.908004 -157.492680
v 1.782902 -0.091996 -157.492680
v 2.958651 -0.091996 -157.472266
v 3.252634 49.908004 -174.970151
v 2.076882 49.908004 -174.990348
v 2.076882 -0.091996 -174.990348
v 3.252634 -0.091996 -174.970151
v 3.593650 49.908004 -194.396275
v 2.417903 49.908004 -194.416815
v 2.417903 -0.091996 -194.416815
v 3.593650 -0.091996 -194.396275
# 56 vertices

vn 0.000000 1.000000 0.000000
vn -0.027618 0.000000 -0.999619
vn 0.000000 0.999996 0.000000
vn -0.164379 0.000000 -0.986397
vn -0.362174 0.000000 -0.932110
vn 0.999721 0.000000 0.023458
vn 0.999794 0.000000 0.020311
vn 0.000000 -1.000000 0.000000
vn 0.000000 -1.000000 0.000000
vn -0.999984 0.000000 -0.005733
vn -0.999997 0.000000 -0.002624
vn 0.999848 0.000000 0.017429
vn -1.000000 0.000000 0.000243
vn 0.999846 0.000000 0.017537
vn -1.000000 0.000000 0.000000
vn 0.999848 0.000000 0.017467
vn 0.999853 0.000000 0.017175
vn 0.999931 0.000000 0.011766
vn -0.999986 0.000000 0.005332
vn 0.000000 1.000000 0.000000
vn 0.999977 0.000000 0.006733
vn -0.999943 0.000000 0.010664
vn 0.000000 -0.999996 0.000000
vn -0.098272 0.000000 0.995156
vn 0.000000 0.999998 0.000000
vn -0.376922 0.000000 0.926245
vn -0.169958 0.000000 0.985451
vn 0.098272 0.000000 -0.995156
vn 0.044882 0.000000 0.998989
vn -0.999977 0.000000 -0.006733
vn -0.999931 0.000000 -0.011766
vn 0.999593 0.000000 0.028532
vn 0.999743 0.000000 0.022666
vn -0.999853 0.000000 -0.017175
vn 0.999853 0.000000 0.017175
vn -0.999848 0.000000 -0.017467
vn 0.999848 0.000000 0.017467
vn -0.999846 0.000000 -0.017537
vn 0.999846 0.000000 0.017537
vn -0.999848 0.000000 -0.017429
vn 0.999848 0.000000 0.017429
vn -0.999794 0.000000 -0.020311
vn 0.999896 0.000000 0.014440
vn -0.999721 0.000000 -0.023458
vn 0.999928 0.000000 0.011715
vn 0.027618 0.000000 0.999619
vn 0.040331 0.000000 -0.999186
# 47 normals

vt 0.250000 0.999922 0.000000
vt 0.000000 0.999922 0.000000
vt 0.000000 1.000000 0.000000
vt 0.250000 1.000000 0.000000
vt 0.500000 1.000000 0.000000
vt 0.500000 0.999922 0.000000
vt 0.750000 0.999922 0.000000
vt 0.750000 1.000000 0.000000
vt 1.000000 1.000000 0.000000
vt 1.000000 0.999922 0.000000
vt 0.250000 0.906387 0.000000
vt 0.000000 0.906387 0.000000
vt 0.500000 0.906387 0.000000
vt 0.750000 0.906387 0.000000
vt 1.000000 0.906387 0.000000
vt 0.250000 0.822246 0.000000
vt 0.000000 0.822246 0.000000
vt 0.500000 0.822246 0.000000
vt 0.750000 0.822246 0.000000
vt 1.000000 0.822246 0.000000
vt 0.250000 0.746460 0.000000
vt 0.000000 0.746460 0.000000
vt 0.500000 0.746460 0.000000
vt 0.750000 0.746460 0.000000
vt 1.000000 0.746460 0.000000
vt 0.250000 0.678286 0.000000
vt 0.000000 0.678286 0.000000
vt 0.500000 0.678286 0.000000
vt 0.750000 0.678286 0.000000
vt 1.000000 0.678286 0.000000
vt 0.250000 0.616944 0.000000
vt 0.000000 0.616944 0.000000
vt 0.500000 0.616944 0.000000
vt 0.750000 0.616944 0.000000
vt 1.000000 0.616944 0.000000
vt 0.250000 0.561692 0.000000
vt 0.000000 0.561692 0.000000
vt 0.500000 0.561692 0.000000
vt 0.750000 0.561692 0.000000
vt 1.000000 0.561692 0.000000
vt 0.250000 0.512013 0.000000
vt 0.000000 0.512013 0.000000
vt 0.500000 0.512013 0.000000
vt 0.750000 0.512013 0.000000
vt 1.000000 0.512013 0.000000
vt 0.250000 0.511976 0.000000
vt 0.000000 0.511976 0.000000
vt 0.500000 0.511976 0.000000
vt 0.750000 0.511976 0.000000
vt 1.000000 0.511976 0.000000
vt 0.250000 0.504214 0.000000
vt 0.000000 0.504214 0.000000
vt 0.500000 0.504214 0.000000
vt 0.750000 0.504214 0.000000
vt 1.000000 0.504214 0.000000
vt 0.250000 0.454487 0.000000
vt 0.000000 0.454487 0.000000
vt 0.500000 0.454487 0.000000
vt 0.750000 0.454487 0.000000
vt 1.000000 0.454487 0.000000
vt 0.250000 0.399227 0.000000
vt 0.000000 0.399227 0.000000
vt 0.500000 0.399227 0.000000
vt 0.750000 0.399227 0.000000
vt 1.000000 0.399227 0.000000
vt 0.250000 0.337875 0.000000
vt 0.000000 0.337875 0.000000
vt 0.500000 0.337875 0.000000
vt 0.750000 0.337875 0.000000
vt 1.000000 0.337875 0.000000
vt 0.250000 0.269728 0.000000
vt 0.000000 0.269728 0.000000
vt 0.500000 0.269728 0.000000
vt 0.750000 0.269728 0.000000
vt 1.000000 0.269728 0.000000
vt 0.250000 0.193967 0.000000
vt 0.000000 0.193967 0.000000
vt 0.500000 0.193967 0.000000
vt 0.750000 0.193967 0.000000
vt 1.000000 0.193967 0.000000
vt 0.250000 0.109814 0.000000
vt 0.000000 0.109814 0.000000
vt 0.500000 0.109814 0.000000
vt 0.750000 0.109814 0.000000
vt 1.000000 0.109814 0.000000
vt 0.250000 0.016264 0.000000
vt 0.000000 0.016264 0.000000
vt 0.500000 0.016264 0.000000
vt 0.750000 0.016264 0.000000
vt 1.000000 0.016264 0.000000
vt 0.250000 0.000000 0.000000
vt 0.000000 0.000000 0.000000
vt 0.500000 0.000000 0.000000
vt 0.750000 0.000000 0.000000
vt 1.000000 0.000000 0.000000
# 95 texture coordinates

o platform6
usemtl default
f 2/4/1 1/3/1 5/2/1 14/1/1
f 14/1/2 6/6/2 3/5/2 2/4/2
f 4/8/3 3/5/3 6/6/3 8/7/3
f 8/7/5 5/10/5 1/9/4 4/8/4
f 9/12/1 30/11/1 14/1/1 5/2/1
f 30/11/7 26/13/7 6/6/6 14/1/6
f 26/13/9 12/14/9 8/7/8 6/6/8
f 12/14/11 9/15/11 5/10/10 8/7/10
f 13/17/1 15/16/1 30/11/1 9/12/1
f 15/16/12 7/18/12 26/13/7 30/11/7
f 7/18/9 16/19/9 12/14/9 26/13/9
f 16/19/13 13/20/13 9/15/11 12/14/11
f 17/22/1 31/21/1 15/16/1 13/17/1
f 31/21/14 27/23/14 7/18/12 15/16/12
f 27/23/9 20/24/9 16/19/9 7/18/9
f 20/24/15 17/25/15 13/20/13 16/19/13
f 21/27/1 54/26/1 31/21/1 17/22/1
f 54/26/16 55/28/16 27/23/14 31/21/14
f 55/28/9 24/29/9 20/24/9 27/23/9
f 24/29/15 21/30/15 17/25/15 20/24/15
f 25/32/1 50/31/1 54/26/1 21/27/1
f 50/31/17 51/33/17 55/28/16 54/26/16
f 51/33/9 28/34/9 24/29/9 55/28/9
f 28/34/15 25/35/15 21/30/15 24/29/15
f 29/37/1 46/36/1 50/31/1 25/32/1
f 46/36/18 47/38/18 51/33/17 50/31/17
f 47/38/9 32/39/9 28/34/9 51/33/9
f 32/39/19 29/40/19 25/35/15 28/34/15
f 33/42/20 42/41/20 46/36/1 29/37/1
f 42/41/21 43/43/21 47/38/18 46/36/18
f 43/43/9 36/44/9 32/39/9 47/38/9
f 36/44/22 33/45/22 29/40/19 32/39/19
f 42/41/23 33/42/23 37/47/23 38/46/23
f 38/46/24 39/48/24 43/43/24 42/41/24
f 39/48/25 40/49/25 36/44/25 43/43/25
f 40/49/27 37/50/27 33/45/26 36/44/26
f 41/52/1 42/51/1 38/46/1 37/47/1
f 42/51/28 43/53/28 39/48/28 38/46/28
f 43/53/9 44/54/9 40/49/9 39/48/9
f 44/54/29 41/55/29 37/50/27 40/49/27
f 45/57/1 46/56/1 42/51/1 41/52/1
f 46/56/31 47/58/31 43/53/30 42/51/30
f 47/58/9 48/59/9 44/54/9 43/53/9
f 48/59/33 45/60/33 41/55/32 44/54/32
f 49/62/1 50/61/1 46/56/1 45/57/1
f 50/61/34 51/63/34 47/58/31 46/56/31
f 51/63/9 52/64/9 48/59/9 47/58/9
f 52/64/35 49/65/35 45/60/33 48/59/33
f 53/67/1 54/66/1 50/61/1 49/62/1
f 54/66/36 55/68/36 51/63/34 50/61/34
f 55/68/9 56/69/9 52/64/9 51/63/9
f 56/69/37 53/70/37 49/65/35 52/64/35
f 35/72/1 31/71/1 54/66/1 53/67/1
f 31/71/38 27/73/38 55/68/36 54/66/36
f 27/73/9 23/74/9 56/69/9 55/68/9
f 23/74/39 35/75/39 53/70/37 56/69/37
f 19/77/1 15/76/1 31/71/1 35/72/1
f 15/76/40 7/78/40 27/73/38 31/71/38
f 7/78/9 11/79/9 23/74/9 27/73/9
f 11/79/41 19/80/41 35/75/39 23/74/39
f 34/82/1 30/81/1 15/76/1 19/77/1
f 30/81/42 26/83/42 7/78/40 15/76/40
f 26/83/9 22/84/9 11/79/9 7/78/9
f 22/84/43 34/85/43 19/80/41 11/79/41
f 18/87/1 14/86/1 30/81/1 34/82/1
f 14/86/44 6/88/44 26/83/42 30/81/42
f 6/88/9 10/89/9 22/84/9 26/83/9
f 10/89/45 18/90/45 34/85/43 22/84/43
f 1/92/1 2/91/1 14/86/1 18/87/1
f 2/91/46 3/93/46 6/88/46 14/86/46
f 3/93/9 4/94/9 10/89/9 6/88/9
f 4/94/4 1/95/4 18/90/47 10/89/47

