# WaveFront *.obj file (generated by Cinema 4D)

mtllib ./platform5.mtl

v -0.964038 49.908004 -329.791240
v -0.968877 49.908004 -328.615324
v -0.968877 -0.091996 -328.615324
v -0.964038 -0.091996 -329.791240
v -1.405728 49.908004 -329.619034
v -0.574223 49.908004 -328.787529
v -0.574223 -0.091996 -328.787529
v -1.405728 -0.091996 -329.619034
v -1.577939 49.908004 -296.289116
v -0.402013 49.908004 -296.289116
v -0.402013 -0.091996 -296.289116
v -1.577939 -0.091996 -296.289116
v -1.577939 49.908004 -266.667414
v -0.402013 49.908004 -266.667673
v -0.402013 -0.091996 -266.667673
v -1.577939 -0.091996 -266.667414
v -1.566179 49.908004 -240.020933
v -0.390253 49.908004 -240.021193
v -0.390253 -0.091996 -240.021193
v -1.566179 -0.091996 -240.020933
v -1.566179 49.908004 -216.020416
v -0.390253 49.908004 -216.020416
v -0.390253 -0.091996 -216.020416
v -1.566179 -0.091996 -216.020416
v -1.393969 49.908004 -194.014664
v -0.562464 49.908004 -194.846169
v -0.562464 -0.091996 -194.846169
v -1.393969 -0.091996 -194.014664
v -0.968506 49.908004 -193.842457
v -0.964408 49.908004 -195.018376
v -0.964408 -0.091996 -195.018376
v -0.968506 -0.091996 -193.842457
v 2.819099 49.908004 -193.986103
v 4.771973 49.908004 -296.231904
v 4.254565 49.908004 -266.610313
v 2.819099 -0.091996 -193.986103
v 3.372619 49.908004 -215.974825
v 4.771973 -0.091996 -296.231904
v 5.169537 -0.091996 -329.566689
v 3.372619 -0.091996 -215.974825
v 3.795953 49.908004 -239.963780
v 5.169537 49.908004 -329.566689
v 4.254565 -0.091996 -266.610313
v 3.795953 -0.091996 -239.963780
# 44 vertices

vn 0.000000 1.000000 0.000000
vn -0.399941 0.000000 -0.916541
vn 0.000000 -1.000000 0.000000
vn -0.166771 0.000000 -0.985996
vn -0.363200 0.000000 -0.931711
vn 0.999986 0.000000 -0.005299
vn 0.999997 0.000000 -0.002649
vn -0.999987 0.000000 -0.005167
vn -0.999997 0.000000 -0.002583
vn 1.000000 0.000000 -0.000221
vn -1.000000 0.000000 0.000221
vn 1.000000 0.000000 -0.000221
vn -1.000000 0.000000 0.000221
vn 0.999992 0.000000 0.004066
vn -0.999992 0.000000 0.003913
vn 0.999967 0.000000 0.008133
vn -0.999969 0.000000 0.007825
vn -0.393791 0.000000 0.919200
vn -0.375192 0.000000 0.926947
vn -0.172481 0.000000 0.985013
vn 0.393791 0.000000 -0.919200
vn 0.037898 0.000000 0.999282
vn -0.999967 0.000000 -0.008133
vn -0.999992 0.000000 -0.004066
vn 0.999683 0.000000 0.025165
vn 0.999771 0.000000 0.021405
vn -1.000000 0.000000 0.000221
vn 0.999848 0.000000 0.017426
vn -1.000000 0.000000 0.000221
vn 0.999850 0.000000 0.017336
vn -0.999997 0.000000 0.002649
vn 0.999892 0.000000 0.014695
vn -0.999986 0.000000 0.005299
vn 0.999929 0.000000 0.011926
vn 0.399941 0.000000 0.916541
vn 0.036585 0.000000 -0.999330
# 36 normals

vt 0.250000 1.000000 0.000000
vt 0.250000 0.999916 0.000000
vt 0.000000 0.999916 0.000000
vt 0.000000 1.000000 0.000000
vt 0.500000 1.000000 0.000000
vt 0.500000 0.999916 0.000000
vt 0.750000 1.000000 0.000000
vt 0.750000 0.999916 0.000000
vt 1.000000 1.000000 0.000000
vt 1.000000 0.999916 0.000000
vt 0.250000 0.881803 0.000000
vt 0.000000 0.881803 0.000000
vt 0.500000 0.881803 0.000000
vt 0.750000 0.881803 0.000000
vt 1.000000 0.881803 0.000000
vt 0.250000 0.775506 0.000000
vt 0.000000 0.775506 0.000000
vt 0.500000 0.775506 0.000000
vt 0.750000 0.775506 0.000000
vt 1.000000 0.775506 0.000000
vt 0.250000 0.679885 0.000000
vt 0.000000 0.679885 0.000000
vt 0.500000 0.679885 0.000000
vt 0.750000 0.679885 0.000000
vt 1.000000 0.679885 0.000000
vt 0.250000 0.593759 0.000000
vt 0.000000 0.593759 0.000000
vt 0.500000 0.593759 0.000000
vt 0.750000 0.593759 0.000000
vt 1.000000 0.593759 0.000000
vt 0.250000 0.516283 0.000000
vt 0.000000 0.516283 0.000000
vt 0.500000 0.516283 0.000000
vt 0.750000 0.516283 0.000000
vt 1.000000 0.516283 0.000000
vt 0.250000 0.516241 0.000000
vt 0.000000 0.516241 0.000000
vt 0.500000 0.516241 0.000000
vt 0.750000 0.516241 0.000000
vt 1.000000 0.516241 0.000000
vt 0.250000 0.504130 0.000000
vt 0.000000 0.504130 0.000000
vt 0.500000 0.504130 0.000000
vt 0.750000 0.504130 0.000000
vt 1.000000 0.504130 0.000000
vt 0.250000 0.426685 0.000000
vt 0.000000 0.426685 0.000000
vt 0.500000 0.426685 0.000000
vt 0.750000 0.426685 0.000000
vt 1.000000 0.426685 0.000000
vt 0.250000 0.340587 0.000000
vt 0.000000 0.340587 0.000000
vt 0.500000 0.340587 0.000000
vt 0.750000 0.340587 0.000000
vt 1.000000 0.340587 0.000000
vt 0.250000 0.244952 0.000000
vt 0.000000 0.244952 0.000000
vt 0.500000 0.244952 0.000000
vt 0.750000 0.244952 0.000000
vt 1.000000 0.244952 0.000000
vt 0.250000 0.138639 0.000000
vt 0.000000 0.138639 0.000000
vt 0.500000 0.138639 0.000000
vt 0.750000 0.138639 0.000000
vt 1.000000 0.138639 0.000000
vt 0.250000 0.020509 0.000000
vt 0.000000 0.020509 0.000000
vt 0.500000 0.020509 0.000000
vt 0.750000 0.020509 0.000000
vt 1.000000 0.020509 0.000000
vt 0.250000 0.000000 0.000000
vt 0.000000 0.000000 0.000000
vt 0.500000 0.000000 0.000000
vt 0.750000 0.000000 0.000000
vt 1.000000 0.000000 0.000000
# 75 texture coordinates

o platform5
usemtl default
f 1/4/1 5/3/1 6/2/1 2/1/1
f 6/2/2 7/6/2 3/5/2 2/1/2
f 3/5/3 7/6/3 8/8/3 4/7/3
f 8/8/5 5/10/5 1/9/4 4/7/4
f 9/12/1 10/11/1 6/2/1 5/3/1
f 10/11/7 11/13/7 7/6/6 6/2/6
f 11/13/3 12/14/3 8/8/3 7/6/3
f 12/14/9 9/15/9 5/10/8 8/8/8
f 13/17/1 14/16/1 10/11/1 9/12/1
f 14/16/10 15/18/10 11/13/7 10/11/7
f 15/18/3 16/19/3 12/14/3 11/13/3
f 16/19/11 13/20/11 9/15/9 12/14/9
f 17/22/1 18/21/1 14/16/1 13/17/1
f 18/21/12 19/23/12 15/18/10 14/16/10
f 19/23/3 20/24/3 16/19/3 15/18/3
f 20/24/13 17/25/13 13/20/11 16/19/11
f 21/27/1 22/26/1 18/21/1 17/22/1
f 22/26/14 23/28/14 19/23/12 18/21/12
f 23/28/3 24/29/3 20/24/3 19/23/3
f 24/29/15 21/30/15 17/25/13 20/24/13
f 25/32/1 26/31/1 22/26/1 21/27/1
f 26/31/16 27/33/16 23/28/14 22/26/14
f 27/33/3 28/34/3 24/29/3 23/28/3
f 28/34/17 25/35/17 21/30/15 24/29/15
f 25/32/1 29/37/1 30/36/1 26/31/1
f 30/36/18 31/38/18 27/33/18 26/31/18
f 31/38/3 32/39/3 28/34/3 27/33/3
f 32/39/20 29/40/20 25/35/19 28/34/19
f 33/42/1 26/41/1 30/36/1 29/37/1
f 26/41/21 27/43/21 31/38/21 30/36/21
f 31/38/3 27/43/3 36/44/3 32/39/3
f 36/44/22 33/45/22 29/40/20 32/39/20
f 37/47/1 22/46/1 26/41/1 33/42/1
f 22/46/24 23/48/24 27/43/23 26/41/23
f 23/48/3 40/49/3 36/44/3 27/43/3
f 40/49/26 37/50/26 33/45/25 36/44/25
f 41/52/1 18/51/1 22/46/1 37/47/1
f 18/51/27 19/53/27 23/48/24 22/46/24
f 19/53/3 44/54/3 40/49/3 23/48/3
f 44/54/28 41/55/28 37/50/26 40/49/26
f 35/57/1 14/56/1 18/51/1 41/52/1
f 14/56/29 15/58/29 19/53/27 18/51/27
f 15/58/3 43/59/3 44/54/3 19/53/3
f 43/59/30 35/60/30 41/55/28 44/54/28
f 34/62/1 10/61/1 14/56/1 35/57/1
f 10/61/31 11/63/31 15/58/29 14/56/29
f 11/63/3 38/64/3 43/59/3 15/58/3
f 38/64/32 34/65/32 35/60/30 43/59/30
f 42/67/1 6/66/1 10/61/1 34/62/1
f 6/66/33 7/68/33 11/63/31 10/61/31
f 7/68/3 39/69/3 38/64/3 11/63/3
f 39/69/34 42/70/34 34/65/32 38/64/32
f 42/67/1 1/72/1 2/71/1 6/66/1
f 2/71/35 3/73/35 7/68/35 6/66/35
f 3/73/3 4/74/3 39/69/3 7/68/3
f 4/74/4 1/75/4 42/70/36 39/69/36

