# WaveFront *.obj file (generated by Cinema 4D)

mtllib ./platform10.mtl

v 1.708509 -0.091996 -93.481417
v 0.668394 49.908004 -103.231381
v 0.668394 -0.091996 -103.231381
v 0.676464 -0.091996 -104.407279
v 0.270042 49.891949 -104.429585
v 2.884256 49.908004 -93.460947
v 2.049511 -0.091996 -103.385313
v 2.893680 -0.091996 -104.203959
v 0.072707 49.908004 -84.192714
v 1.708509 49.908004 -93.481417
v 2.049511 49.908004 -103.385313
v 0.072707 -0.091996 -84.192714
v 0.084466 49.908004 -75.831881
v 2.718451 -0.091996 -84.171162
v 2.893680 49.908004 -104.203959
v 0.084466 -0.091996 -75.831881
v 0.254121 49.908004 -55.016799
v 1.542703 -0.091996 -84.191574
v 2.884256 -0.091996 -93.460947
v 0.254121 -0.091996 -55.016799
v 2.035684 49.908004 -54.996386
v 1.216525 49.908004 -55.840056
v 1.216525 -0.091996 -55.840056
v 2.035684 -0.091996 -54.996386
v 2.318628 49.908004 -61.509396
v 1.142897 49.908004 -61.530805
v 1.237343 -0.102819 -61.356243
v 2.318628 -0.091996 -61.509396
v 2.449156 49.908004 -68.283939
v 1.273424 49.908004 -68.305280
v 1.273424 -0.091996 -68.305280
v 2.449156 -0.091996 -68.283939
v 2.577344 49.908004 -75.809392
v 1.401587 49.908004 -75.829326
v 1.401587 -0.091996 -75.829326
v 2.577344 -0.091996 -75.809392
v 2.718451 49.908004 -84.171162
v 1.542703 49.908004 -84.191574
# 38 vertices

vn 0.001440 -0.999916 0.012920
vn -0.110768 0.000000 -0.993846
vn 0.000000 1.000000 0.000000
vn 0.088501 0.000149 -0.996076
vn -0.004442 0.999990 -0.000514
vn -0.002221 0.999998 -0.000257
vn 0.999652 0.000000 0.026396
vn 0.999766 0.000000 0.021635
vn 0.000000 -1.000000 0.000000
vn -0.999796 -0.004068 -0.019800
vn -0.999956 -0.002034 -0.009197
vn 0.000000 1.000000 0.000000
vn 0.999915 0.000000 0.013065
vn -0.999989 0.000000 0.004778
vn 0.999957 0.000000 0.009258
vn 0.001715 -0.999998 0.000333
vn -0.999967 0.000000 0.008150
vn 0.002573 -0.999997 0.000500
vn -0.011457 0.000000 0.999934
vn -0.999989 -0.000922 0.004582
vn -0.999992 -0.000938 -0.003824
vn 0.005089 -0.999987 0.000159
vn 0.999058 0.000000 0.043402
vn 0.999509 0.000000 0.031335
vn -0.999893 -0.000477 -0.014631
vn 0.002516 -0.999997 -0.000341
vn 0.999835 0.000000 0.018148
vn -0.999856 0.000000 -0.016952
vn 0.999856 0.000000 0.016952
vn -0.999849 0.000000 -0.017359
vn 0.999849 0.000000 0.017359
vn -0.999659 0.000000 -0.026129
vn 0.999956 0.000000 0.009362
vn -0.001278 0.999995 -0.002925
vn -0.999408 0.000000 -0.034411
vn 1.000000 0.000000 0.000877
vn -0.002557 0.999980 -0.005849
vn 0.110769 -0.000000 0.993846
# 38 normals

vt 0.250000 0.999882 0.000000
vt 0.000000 0.999941 0.000000
vt 0.250000 1.000000 0.000000
vt 0.500000 1.000000 0.000000
vt 0.500000 0.999882 0.000000
vt 0.750000 0.999941 0.000000
vt 0.750000 0.018077 0.000000
vt 1.000000 0.018077 0.000000
vt 1.000000 0.000000 0.000000
vt 0.750000 0.000000 0.000000
vt 0.000000 0.999882 0.000000
vt 0.250000 0.802709 0.000000
vt 0.000000 0.802709 0.000000
vt 0.500000 0.802709 0.000000
vt 0.750000 0.999882 0.000000
vt 0.750000 0.802709 0.000000
vt 1.000000 0.999882 0.000000
vt 1.000000 0.802709 0.000000
vt 0.250000 0.718713 0.000000
vt 0.000000 0.718713 0.000000
vt 0.500000 0.718713 0.000000
vt 0.750000 0.718713 0.000000
vt 1.000000 0.718713 0.000000
vt 0.250000 0.513742 0.000000
vt 0.000000 0.513742 0.000000
vt 0.500000 0.513742 0.000000
vt 0.750000 0.513742 0.000000
vt 1.000000 0.513742 0.000000
vt 0.250000 0.508952 0.000000
vt 0.000000 0.504161 0.000000
vt 0.500000 0.018077 0.000000
vt 0.500000 0.000000 0.000000
vt 0.750000 0.504161 0.000000
vt 0.500000 0.508952 0.000000
vt 1.000000 0.504161 0.000000
vt 0.250000 0.504161 0.000000
vt 0.250000 0.442850 0.000000
vt 0.000000 0.442850 0.000000
vt 0.500000 0.504161 0.000000
vt 0.500000 0.442850 0.000000
vt 0.750000 0.442850 0.000000
vt 1.000000 0.442850 0.000000
vt 0.250000 0.374778 0.000000
vt 0.000000 0.374778 0.000000
vt 0.500000 0.374778 0.000000
vt 0.750000 0.374778 0.000000
vt 1.000000 0.374778 0.000000
vt 0.250000 0.299170 0.000000
vt 0.000000 0.299170 0.000000
vt 0.500000 0.299170 0.000000
vt 0.750000 0.299170 0.000000
vt 1.000000 0.299170 0.000000
vt 0.250000 0.215150 0.000000
vt 0.000000 0.215150 0.000000
vt 0.500000 0.215150 0.000000
vt 0.750000 0.215150 0.000000
vt 1.000000 0.215150 0.000000
vt 0.250000 0.121806 0.000000
vt 0.000000 0.121806 0.000000
vt 0.500000 0.121806 0.000000
vt 0.750000 0.121806 0.000000
vt 1.000000 0.121806 0.000000
vt 0.250000 0.018077 0.000000
vt 0.000000 0.018077 0.000000
vt 0.250000 0.000000 0.000000
vt 0.000000 0.000000 0.000000
# 66 texture coordinates

o platform10
usemtl default
f 2/3/1 5/2/1 11/1/1
f 11/1/2 7/5/2 3/4/2 2/3/2
f 3/4/3 7/5/3 4/6/3
f 4/10/4 5/9/4 15/8/4 8/7/4
f 9/13/6 38/12/6 11/1/5 5/11/5
f 38/12/8 18/14/8 7/5/7 11/1/7
f 18/14/9 12/16/9 4/15/9 7/5/9
f 12/16/11 9/18/11 5/17/10 4/15/10
f 13/20/12 34/19/12 38/12/6 9/13/6
f 34/19/13 35/21/13 18/14/8 38/12/8
f 35/21/9 16/22/9 12/16/9 18/14/9
f 16/22/14 13/23/14 9/18/11 12/16/11
f 17/25/12 22/24/12 34/19/12 13/20/12
f 22/24/15 23/26/15 35/21/13 34/19/13
f 23/26/16 20/27/9 16/22/9 35/21/9
f 20/27/17 17/28/17 13/23/14 16/22/14
f 17/25/12 21/30/12 22/29/12
f 3/32/9 4/10/9 8/7/9 7/31/9
f 23/34/16 24/33/18 20/27/9
f 24/33/19 21/35/19 17/28/19 20/27/19
f 25/38/12 26/37/12 22/36/12 21/30/12
f 26/37/21 27/40/21 23/39/20 22/36/20
f 27/40/22 28/41/22 24/33/18 23/39/16
f 28/41/24 25/42/24 21/35/23 24/33/23
f 29/44/12 30/43/12 26/37/12 25/38/12
f 30/43/25 31/45/25 27/40/21 26/37/21
f 31/45/26 32/46/26 28/41/22 27/40/22
f 32/46/27 29/47/27 25/42/24 28/41/24
f 33/49/12 34/48/12 30/43/12 29/44/12
f 34/48/28 35/50/28 31/45/25 30/43/25
f 35/50/9 36/51/9 32/46/26 31/45/26
f 36/51/29 33/52/29 29/47/27 32/46/27
f 37/54/12 38/53/12 34/48/12 33/49/12
f 38/53/30 18/55/30 35/50/28 34/48/28
f 18/55/9 14/56/9 36/51/9 35/50/9
f 14/56/31 37/57/31 33/52/29 36/51/29
f 6/59/12 10/58/12 38/53/12 37/54/12
f 10/58/32 1/60/32 18/55/30 38/53/30
f 1/60/9 19/61/9 14/56/9 18/55/9
f 19/61/33 6/62/33 37/57/31 14/56/31
f 15/64/34 11/63/34 10/58/12 6/59/12
f 11/63/35 7/31/35 1/60/32 10/58/32
f 7/31/9 8/7/9 19/61/9 1/60/9
f 8/7/36 15/8/36 6/62/33 19/61/33
f 5/66/37 2/65/37 11/63/34 15/64/34
f 2/65/38 3/32/38 7/31/38 11/63/38

