# WaveFront *.obj file (generated by Cinema 4D)

mtllib ./platform2.mtl

v -1.917327 49.908004 -452.087530
v 6.344668 -0.091996 -451.839237
v -1.922616 -0.091996 -450.911616
v -1.917327 -0.091996 -452.087530
v -2.371056 49.908004 -451.915272
v -1.539443 49.908004 -451.083875
v 5.723458 -0.091996 -406.274987
v -2.371056 -0.091996 -451.915272
v -2.531453 49.908004 -406.355702
v -1.355527 49.908004 -406.355855
v 4.547710 -0.091996 -406.295459
v -2.531453 -0.091996 -406.355702
v -2.531453 49.908004 -365.727540
v -1.355527 49.908004 -365.727540
v 6.344668 49.908004 -451.839237
v -2.531453 -0.091996 -365.727540
v -2.359243 49.908004 -328.752251
v -1.527737 49.908004 -329.583757
v 5.723458 49.908004 -406.274987
v -2.359243 -0.091996 -328.752251
v -1.922391 49.908004 -328.580046
v -1.917552 49.908004 -329.755962
v -1.917552 -0.091996 -329.755962
v -1.922391 -0.091996 -328.580046
v 4.205425 49.908004 -328.699926
v 5.502241 -0.091996 -451.018799
v 3.384632 -0.091996 -329.542008
v 4.205425 -0.091996 -328.699926
v 5.017902 49.908004 -365.658530
v 5.502241 49.908004 -451.018799
v 3.842154 -0.091996 -365.678956
v 5.017902 -0.091996 -365.658530
# 32 vertices

vn 0.000000 -0.999996 0.000000
vn -0.752066 0.592982 -0.287694
vn 0.000000 0.999994 0.000000
vn -0.165616 0.000000 -0.986190
vn -0.354901 0.000000 -0.934904
vn 0.000000 1.000000 0.000000
vn 0.990168 0.139812 -0.004483
vn 0.991362 0.130826 0.009223
vn 0.000000 -1.000000 0.000000
vn -0.999994 0.000000 -0.003521
vn -0.999998 0.000000 -0.001760
vn 0.993672 0.111207 0.015799
vn -0.999997 0.000000 0.002329
vn 0.994890 0.100591 0.008667
vn -0.999989 0.000000 0.004657
vn 0.000000 0.000000 0.000000
vn -0.226153 -0.001591 0.974088
vn -0.366741 0.000000 0.930323
vn -0.177034 0.000000 0.984205
vn 0.226038 0.019803 -0.973915
vn 0.019558 0.000000 0.999809
vn -0.994890 -0.100591 -0.008669
vn -0.994386 -0.105462 -0.008654
vn 0.999758 0.000000 0.021978
vn 0.999807 0.000000 0.019673
vn -0.995262 -0.084684 -0.047778
vn 0.999880 0.000000 0.015501
vn -0.994485 -0.058852 -0.086814
vn 0.999907 0.000000 0.013632
vn 0.684490 -0.100097 0.722117
vn 0.030039 0.000000 -0.999549
# 31 normals

vt 0.250000 0.999863 0.000000
vt 0.000000 0.999863 0.000000
vt 0.000000 1.000000 0.000000
vt 0.250000 1.000000 0.000000
vt 0.500000 1.000000 0.000000
vt 0.500000 0.999863 0.000000
vt 0.750000 0.999863 0.000000
vt 0.750000 1.000000 0.000000
vt 1.000000 1.000000 0.000000
vt 1.000000 0.999863 0.000000
vt 0.250000 0.825074 0.000000
vt 0.000000 0.825074 0.000000
vt 0.500000 0.825074 0.000000
vt 0.750000 0.825074 0.000000
vt 1.000000 0.825074 0.000000
vt 0.250000 0.667769 0.000000
vt 0.000000 0.667769 0.000000
vt 0.500000 0.667769 0.000000
vt 0.750000 0.667769 0.000000
vt 1.000000 0.667769 0.000000
vt 0.250000 0.526217 0.000000
vt 0.000000 0.526217 0.000000
vt 0.500000 0.526217 0.000000
vt 0.750000 0.526217 0.000000
vt 1.000000 0.526217 0.000000
vt 0.250000 0.526125 0.000000
vt 0.000000 0.526125 0.000000
vt 0.500000 0.526125 0.000000
vt 0.750000 0.526125 0.000000
vt 1.000000 0.526125 0.000000
vt 0.250000 0.503997 0.000000
vt 0.000000 0.503997 0.000000
vt 0.500000 0.503997 0.000000
vt 0.750000 0.503997 0.000000
vt 1.000000 0.503997 0.000000
vt 0.250000 0.362469 0.000000
vt 0.000000 0.362469 0.000000
vt 0.500000 0.362469 0.000000
vt 0.750000 0.362469 0.000000
vt 1.000000 0.362469 0.000000
vt 0.250000 0.205185 0.000000
vt 0.000000 0.205185 0.000000
vt 0.500000 0.205185 0.000000
vt 0.750000 0.205185 0.000000
vt 1.000000 0.205185 0.000000
vt 0.250000 0.030370 0.000000
vt 0.000000 0.030370 0.000000
vt 0.500000 0.030370 0.000000
vt 0.750000 0.030370 0.000000
vt 1.000000 0.030370 0.000000
vt 0.250000 0.000000 0.000000
vt 0.000000 0.000000 0.000000
vt 0.500000 0.000000 0.000000
vt 0.750000 0.000000 0.000000
vt 1.000000 0.000000 0.000000
# 55 texture coordinates

o platform2
usemtl default
f 18/4/1 1/3/1 5/2/1 6/1/1
f 6/1/2 26/6/2 3/5/2 18/4/2
f 4/8/3 3/5/3 26/6/3 8/7/3
f 8/7/5 5/10/5 1/9/4 4/8/4
f 9/12/6 10/11/6 6/1/6 5/2/6
f 10/11/8 7/13/8 26/6/7 6/1/7
f 7/13/9 12/14/9 8/7/9 26/6/9
f 12/14/11 9/15/11 5/10/10 8/7/10
f 13/17/6 14/16/6 10/11/6 9/12/6
f 14/16/12 31/18/12 7/13/8 10/11/8
f 31/18/9 16/19/9 12/14/9 7/13/9
f 16/19/13 13/20/13 9/15/11 12/14/11
f 17/22/6 18/21/6 14/16/6 13/17/6
f 18/21/14 27/23/14 31/18/12 14/16/12
f 27/23/9 20/24/9 16/19/9 31/18/9
f 20/24/15 17/25/15 13/20/13 16/19/13
f 17/22/16 21/27/16 22/26/16 18/21/16
f 22/26/17 23/28/17 27/23/17 18/21/17
f 20/24/9 27/23/9 23/28/9 24/29/9
f 24/29/19 21/30/19 17/25/18 20/24/18
f 25/32/6 18/31/6 22/26/6 21/27/6
f 18/31/20 27/33/20 23/28/20 22/26/20
f 27/33/9 28/34/9 24/29/9 23/28/9
f 28/34/21 25/35/21 21/30/19 24/29/19
f 29/37/6 14/36/6 18/31/6 25/32/6
f 14/36/23 31/38/23 27/33/22 18/31/22
f 31/38/9 32/39/9 28/34/9 27/33/9
f 32/39/25 29/40/25 25/35/24 28/34/24
f 19/42/6 10/41/6 14/36/6 29/37/6
f 10/41/26 11/43/26 31/38/23 14/36/23
f 11/43/9 7/44/9 32/39/9 31/38/9
f 7/44/27 19/45/27 29/40/25 32/39/25
f 15/47/6 30/46/6 10/41/6 19/42/6
f 30/46/28 26/48/28 11/43/26 10/41/26
f 26/48/9 2/49/9 7/44/9 11/43/9
f 2/49/29 15/50/29 19/45/27 7/44/27
f 15/47/6 1/52/6 18/51/6 30/46/6
f 18/51/30 3/53/30 26/48/30 30/46/30
f 3/53/9 4/54/9 2/49/9 26/48/9
f 4/54/4 1/55/4 15/50/31 2/49/31

