# WaveFront *.obj file (generated by Cinema 4D)

mtllib ./platform7.mtl

v -1.710582 49.908004 -267.255264
v -1.716551 49.908004 -266.079353
v -1.716551 -0.091996 -266.079353
v -1.710582 -0.091996 -267.255264
v -2.152929 49.908004 -267.082969
v -1.321240 49.908004 -266.251647
v 3.340983 -0.091996 -267.030297
v -2.152929 -0.091996 -267.082969
v -2.313288 49.908004 -240.020698
v -1.137362 49.908004 -240.020957
v 1.449765 -0.091996 -215.995216
v -2.313288 -0.091996 -240.020698
v -2.313288 49.908004 -216.020181
v -1.137362 49.908004 -216.020181
v 2.625510 49.908004 -215.974590
v -2.313288 -0.091996 -216.020181
v -2.313288 49.908004 -194.430181
v -1.137362 49.908004 -194.430181
v 2.249214 -0.091996 -194.396377
v -2.313288 -0.091996 -194.430181
v -2.313288 49.908004 -175.003886
v -1.137362 49.908004 -175.003886
v 1.073468 -0.091996 -194.416949
v -2.313288 -0.091996 -175.003886
v -2.313288 49.908004 -157.506109
v -1.137362 49.908004 -157.506109
v 3.340983 49.908004 -267.030297
v -2.313288 -0.091996 -157.506109
v -2.313288 49.908004 -141.773396
v -1.137362 49.908004 -141.773396
v 2.249214 49.908004 -194.396377
v -2.313288 -0.091996 -141.773396
v -2.313288 49.908004 -127.602314
v -1.137362 49.908004 -127.602314
v 1.908199 -0.091996 -174.970269
v -2.313288 -0.091996 -127.602314
v -2.141078 49.908004 -114.439524
v -1.309573 49.908004 -115.271030
v 0.732446 -0.091996 -174.990466
v -2.141078 -0.091996 -114.439524
v -1.717025 49.908004 -114.267324
v -1.710108 49.908004 -115.443230
v -1.710108 -0.091996 -115.443230
v -1.717025 -0.091996 -114.267324
v 0.695319 49.908004 -114.410148
v 2.625510 -0.091996 -215.974590
v -0.124303 -0.091996 -115.253369
v 0.695319 -0.091996 -114.410148
v 1.085052 49.908004 -127.557028
v 3.048844 49.908004 -239.963545
v -0.090703 -0.091996 -127.577044
v 1.085052 -0.091996 -127.557028
v 1.331990 49.908004 -141.726552
v 2.498181 -0.091996 -266.210245
v 0.156248 -0.091996 -141.747334
v 1.331990 -0.091996 -141.726552
v 1.614215 49.908004 -157.472383
v 1.873097 -0.091996 -239.984037
v 0.438467 -0.091996 -157.492797
v 1.614215 -0.091996 -157.472383
v 1.908199 49.908004 -174.970269
v 3.048844 -0.091996 -239.963545
# 62 vertices

vn 0.000000 -0.999998 0.000000
vn -0.219172 -0.015921 -0.975555
vn 0.000000 0.999996 0.000000
vn -0.162712 0.000000 -0.986674
vn -0.362900 0.000000 -0.931828
vn 0.000000 1.000000 0.000000
vn 0.997641 0.068139 0.008382
vn 0.998038 0.062017 0.008594
vn 0.000000 -1.000000 0.000000
vn -0.999982 0.000000 -0.005925
vn -0.999996 0.000000 -0.002963
vn 0.998613 0.051909 0.008757
vn -1.000000 0.000000 0.000000
vn 0.998978 0.044350 0.008737
vn 0.999256 0.037605 0.008581
vn 0.999464 0.031560 0.008675
vn 0.999622 0.026042 0.008833
vn 0.999702 0.022858 0.008526
vn -0.999979 0.000000 0.006541
vn 0.999716 0.022316 0.008343
vn -0.999914 0.000000 0.013082
vn 0.000000 -0.999998 0.000000
vn -0.259591 -0.001246 0.965716
vn -0.376233 0.000000 0.926521
vn -0.162571 0.000000 0.986697
vn 0.259585 0.004566 -0.965708
vn 0.059101 0.000000 0.998252
vn -0.999716 -0.022317 -0.008343
vn -0.999514 -0.028702 0.012147
vn 0.999561 0.000000 0.029632
vn 0.999723 0.000000 0.023529
vn -0.999263 -0.037767 -0.006799
vn 0.999844 0.000000 0.017673
vn -0.998926 -0.037426 -0.027313
vn 0.999849 0.000000 0.017360
vn -0.999256 -0.037605 -0.008583
vn 0.999853 0.000000 0.017175
vn -0.998978 -0.044349 -0.008740
vn 0.999847 0.000000 0.017494
vn -0.998613 -0.051908 -0.008760
vn 0.999846 0.000000 0.017540
vn -0.998038 -0.062016 -0.008605
vn 0.999899 0.000000 0.014219
vn -0.997640 -0.068140 -0.008399
vn 0.999942 0.000000 0.010793
vn 0.219246 0.001629 0.975667
vn 0.044486 0.000000 -0.999010
# 47 normals

vt 0.250000 1.000000 0.000000
vt 0.250000 0.999924 0.000000
vt 0.000000 0.999924 0.000000
vt 0.000000 1.000000 0.000000
vt 0.500000 1.000000 0.000000
vt 0.500000 0.999924 0.000000
vt 0.750000 0.999924 0.000000
vt 0.750000 1.000000 0.000000
vt 1.000000 1.000000 0.000000
vt 1.000000 0.999924 0.000000
vt 0.250000 0.914049 0.000000
vt 0.000000 0.914049 0.000000
vt 0.500000 0.914049 0.000000
vt 0.750000 0.914049 0.000000
vt 1.000000 0.914049 0.000000
vt 0.250000 0.836700 0.000000
vt 0.000000 0.836700 0.000000
vt 0.500000 0.836700 0.000000
vt 0.750000 0.836700 0.000000
vt 1.000000 0.836700 0.000000
vt 0.250000 0.767120 0.000000
vt 0.000000 0.767120 0.000000
vt 0.500000 0.767120 0.000000
vt 0.750000 0.767120 0.000000
vt 1.000000 0.767120 0.000000
vt 0.250000 0.704513 0.000000
vt 0.000000 0.704513 0.000000
vt 0.500000 0.704513 0.000000
vt 0.750000 0.704513 0.000000
vt 1.000000 0.704513 0.000000
vt 0.250000 0.648122 0.000000
vt 0.000000 0.648122 0.000000
vt 0.500000 0.648122 0.000000
vt 0.750000 0.648122 0.000000
vt 1.000000 0.648122 0.000000
vt 0.250000 0.597419 0.000000
vt 0.000000 0.597419 0.000000
vt 0.500000 0.597419 0.000000
vt 0.750000 0.597419 0.000000
vt 1.000000 0.597419 0.000000
vt 0.250000 0.551749 0.000000
vt 0.000000 0.551749 0.000000
vt 0.500000 0.551749 0.000000
vt 0.750000 0.551749 0.000000
vt 1.000000 0.551749 0.000000
vt 0.250000 0.510668 0.000000
vt 0.000000 0.510668 0.000000
vt 0.500000 0.510668 0.000000
vt 0.750000 0.510668 0.000000
vt 1.000000 0.510668 0.000000
vt 0.250000 0.510630 0.000000
vt 0.000000 0.510630 0.000000
vt 0.500000 0.510630 0.000000
vt 0.750000 0.510630 0.000000
vt 1.000000 0.510630 0.000000
vt 0.250000 0.504187 0.000000
vt 0.000000 0.504187 0.000000
vt 0.500000 0.504187 0.000000
vt 0.750000 0.504187 0.000000
vt 1.000000 0.504187 0.000000
vt 0.250000 0.463138 0.000000
vt 0.000000 0.463138 0.000000
vt 0.500000 0.463138 0.000000
vt 0.750000 0.463138 0.000000
vt 1.000000 0.463138 0.000000
vt 0.250000 0.417465 0.000000
vt 0.000000 0.417465 0.000000
vt 0.500000 0.417465 0.000000
vt 0.750000 0.417465 0.000000
vt 1.000000 0.417465 0.000000
vt 0.250000 0.366712 0.000000
vt 0.000000 0.366712 0.000000
vt 0.500000 0.366712 0.000000
vt 0.750000 0.366712 0.000000
vt 1.000000 0.366712 0.000000
vt 0.250000 0.310313 0.000000
vt 0.000000 0.310313 0.000000
vt 0.500000 0.310313 0.000000
vt 0.750000 0.310313 0.000000
vt 1.000000 0.310313 0.000000
vt 0.250000 0.247696 0.000000
vt 0.000000 0.247696 0.000000
vt 0.500000 0.247696 0.000000
vt 0.750000 0.247696 0.000000
vt 1.000000 0.247696 0.000000
vt 0.250000 0.178144 0.000000
vt 0.000000 0.178144 0.000000
vt 0.500000 0.178144 0.000000
vt 0.750000 0.178144 0.000000
vt 1.000000 0.178144 0.000000
vt 0.250000 0.100821 0.000000
vt 0.000000 0.100821 0.000000
vt 0.500000 0.100821 0.000000
vt 0.750000 0.100821 0.000000
vt 1.000000 0.100821 0.000000
vt 0.250000 0.014932 0.000000
vt 0.000000 0.014932 0.000000
vt 0.500000 0.014932 0.000000
vt 0.750000 0.014932 0.000000
vt 1.000000 0.014932 0.000000
vt 0.250000 0.000000 0.000000
vt 0.000000 0.000000 0.000000
vt 0.500000 0.000000 0.000000
vt 0.750000 0.000000 0.000000
vt 1.000000 0.000000 0.000000
# 105 texture coordinates

o platform7
usemtl default
f 1/4/1 5/3/1 6/2/1 2/1/1
f 6/2/2 54/6/2 3/5/2 2/1/2
f 4/8/3 3/5/3 54/6/3 8/7/3
f 8/7/5 5/10/5 1/9/4 4/8/4
f 9/12/6 10/11/6 6/2/6 5/3/6
f 10/11/8 58/13/8 54/6/7 6/2/7
f 58/13/9 12/14/9 8/7/9 54/6/9
f 12/14/11 9/15/11 5/10/10 8/7/10
f 13/17/6 14/16/6 10/11/6 9/12/6
f 14/16/12 11/18/12 58/13/8 10/11/8
f 11/18/9 16/19/9 12/14/9 58/13/9
f 16/19/13 13/20/13 9/15/11 12/14/11
f 17/22/6 18/21/6 14/16/6 13/17/6
f 18/21/14 23/23/14 11/18/12 14/16/12
f 23/23/9 20/24/9 16/19/9 11/18/9
f 20/24/13 17/25/13 13/20/13 16/19/13
f 21/27/6 22/26/6 18/21/6 17/22/6
f 22/26/15 39/28/15 23/23/14 18/21/14
f 39/28/9 24/29/9 20/24/9 23/23/9
f 24/29/13 21/30/13 17/25/13 20/24/13
f 25/32/6 26/31/6 22/26/6 21/27/6
f 26/31/16 59/33/16 39/28/15 22/26/15
f 59/33/9 28/34/9 24/29/9 39/28/9
f 28/34/13 25/35/13 21/30/13 24/29/13
f 29/37/6 30/36/6 26/31/6 25/32/6
f 30/36/17 55/38/17 59/33/16 26/31/16
f 55/38/9 32/39/9 28/34/9 59/33/9
f 32/39/13 29/40/13 25/35/13 28/34/13
f 33/42/6 34/41/6 30/36/6 29/37/6
f 34/41/18 51/43/18 55/38/17 30/36/17
f 51/43/9 36/44/9 32/39/9 55/38/9
f 36/44/19 33/45/19 29/40/13 32/39/13
f 37/47/6 38/46/6 34/41/6 33/42/6
f 38/46/20 47/48/20 51/43/18 34/41/18
f 47/48/9 40/49/9 36/44/9 51/43/9
f 40/49/21 37/50/21 33/45/19 36/44/19
f 37/47/22 41/52/22 42/51/22 38/46/22
f 42/51/23 43/53/23 47/48/23 38/46/23
f 40/49/9 47/48/9 43/53/9 44/54/9
f 44/54/25 41/55/25 37/50/24 40/49/24
f 45/57/6 38/56/6 42/51/6 41/52/6
f 38/56/26 47/58/26 43/53/26 42/51/26
f 47/58/9 48/59/9 44/54/9 43/53/9
f 48/59/27 45/60/27 41/55/25 44/54/25
f 49/62/6 34/61/6 38/56/6 45/57/6
f 34/61/29 51/63/29 47/58/28 38/56/28
f 51/63/9 52/64/9 48/59/9 47/58/9
f 52/64/31 49/65/31 45/60/30 48/59/30
f 53/67/6 29/66/6 34/61/6 49/62/6
f 29/66/32 55/68/32 51/63/29 34/61/29
f 55/68/9 56/69/9 52/64/9 51/63/9
f 56/69/33 53/70/33 49/65/31 52/64/31
f 57/72/6 26/71/6 29/66/6 53/67/6
f 26/71/34 59/73/34 55/68/32 29/66/32
f 59/73/9 60/74/9 56/69/9 55/68/9
f 60/74/35 57/75/35 53/70/33 56/69/33
f 61/77/6 22/76/6 26/71/6 57/72/6
f 22/76/36 39/78/36 59/73/34 26/71/34
f 39/78/9 35/79/9 60/74/9 59/73/9
f 35/79/37 61/80/37 57/75/35 60/74/35
f 31/82/6 18/81/6 22/76/6 61/77/6
f 18/81/38 23/83/38 39/78/36 22/76/36
f 23/83/9 19/84/9 35/79/9 39/78/9
f 19/84/39 31/85/39 61/80/37 35/79/37
f 15/87/6 14/86/6 18/81/6 31/82/6
f 14/86/40 11/88/40 23/83/38 18/81/38
f 11/88/9 46/89/9 19/84/9 23/83/9
f 46/89/41 15/90/41 31/85/39 19/84/39
f 50/92/6 10/91/6 14/86/6 15/87/6
f 10/91/42 58/93/42 11/88/40 14/86/40
f 58/93/9 62/94/9 46/89/9 11/88/9
f 62/94/43 50/95/43 15/90/41 46/89/41
f 27/97/6 6/96/6 10/91/6 50/92/6
f 6/96/44 54/98/44 58/93/42 10/91/42
f 54/98/9 7/99/9 62/94/9 58/93/9
f 7/99/45 27/100/45 50/95/43 62/94/43
f 27/97/6 1/102/6 2/101/6 6/96/6
f 2/101/46 3/103/46 54/98/46 6/96/46
f 3/103/9 4/104/9 7/99/9 54/98/9
f 4/104/4 1/105/4 27/100/47 7/99/47

