# WaveFront *.obj file (generated by Cinema 4D)

mtllib ./platform9.mtl

v 0.807188 49.908004 -175.592197
v 0.802402 49.908004 -174.416281
v 0.802402 -0.091996 -174.416281
v 0.807188 -0.091996 -175.592197
v 0.377283 49.908004 -175.419991
v 1.208788 49.908004 -174.588486
v 1.208788 -0.091996 -174.588486
v 0.377283 -0.091996 -175.419991
v 0.205073 49.908004 -157.506461
v 1.380998 49.908004 -157.506461
v 1.380998 -0.091996 -157.506461
v 0.205073 -0.091996 -157.506461
v 0.205073 49.908004 -141.772573
v 1.380998 49.908004 -141.772573
v 1.380998 -0.091996 -141.772573
v 0.205073 -0.091996 -141.772573
v 0.205073 49.908004 -127.601490
v 1.380998 49.908004 -127.601490
v 1.380998 -0.091996 -127.601490
v 0.205073 -0.091996 -127.601490
v 0.205073 49.908004 -114.855630
v 1.380998 49.908004 -114.855630
v 1.380998 -0.091996 -114.855630
v 0.205073 -0.091996 -114.855630
v 0.205073 49.908004 -103.378593
v 1.380998 49.908004 -103.378593
v 1.380998 -0.091996 -103.378593
v 0.205073 -0.091996 -103.378593
v 0.205073 49.908004 -83.750801
v 1.380998 49.908004 -83.751628
v 1.380998 -0.091996 -83.751628
v 0.205073 -0.091996 -83.750801
v 0.387278 49.908004 -74.977576
v 1.222311 49.908004 -75.805538
v 1.222311 -0.091996 -75.805538
v 0.387278 -0.091996 -74.977576
v 2.519924 49.908004 -74.957051
v 2.728649 34.309701 -174.575085
v 4.132576 49.908004 -157.472736
v 2.519924 -0.091996 -74.957051
v 2.850811 49.908004 -83.730048
v 3.850351 -0.091996 -141.726904
v 3.603413 -0.091996 -127.557381
v 2.850811 -0.091996 -83.730048
v 3.015446 49.908004 -93.020214
v 1.220152 50.020285 -93.354894
v 0.798184 -0.061888 -93.125796
v 3.015446 -0.091996 -93.020214
v 3.191837 49.908004 -103.343757
v 4.259588 49.908004 -175.390080
v 4.259588 -0.091996 -175.390080
v 3.191837 -0.091996 -103.343757
v 3.391747 49.908004 -114.822107
v 3.850351 49.908004 -141.726904
v 4.132576 -0.091996 -157.472736
v 3.391747 -0.091996 -114.822107
v 3.603413 49.908004 -127.557381
# 57 vertices

vn 0.000000 -0.999999 0.000000
vn -0.390174 0.000000 -0.920741
vn 0.000000 -1.000000 0.000000
vn -0.160551 0.000000 -0.987027
vn -0.371825 0.000000 -0.928303
vn 0.000000 1.000000 0.000000
vn 0.999949 0.000000 -0.010081
vn 0.999987 0.000000 -0.005040
vn -0.999954 0.000000 -0.009613
vn -0.999988 0.000000 -0.004807
vn 1.000000 0.000000 0.000000
vn -1.000000 0.000000 0.000000
vn 1.000000 0.000000 0.000000
vn -1.000000 0.000000 0.000000
vn 0.999950 0.000000 0.009984
vn -0.999946 0.000000 0.010383
vn 0.999801 0.000000 0.019967
vn -0.999784 0.000000 0.020764
vn 0.058444 0.000000 -0.998287
vn -0.009623 0.000000 0.999954
vn 0.015521 0.999874 0.003201
vn -0.999801 0.000000 -0.019967
vn -0.999950 0.002127 0.009751
vn -0.003366 -0.999994 -0.000594
vn 0.999290 0.000000 0.037690
vn 0.999616 0.000000 0.027706
vn 0.031603 0.999500 0.000663
vn -0.999495 0.010178 0.030094
vn -0.006767 -0.999977 0.000083
vn 0.999849 0.000000 0.017401
vn 0.016086 0.999867 -0.002538
vn -0.999750 0.019809 0.010363
vn -0.003400 -0.999994 0.000677
vn 0.999851 0.000000 0.017249
vn -0.999580 0.017621 -0.022993
vn 0.999855 0.000000 0.017016
vn -0.999718 0.005861 -0.022993
vn 0.999855 0.000000 0.017021
vn 0.999844 0.000000 0.017673
vn -0.999791 0.011049 -0.017184
vn -0.999655 -0.024996 -0.008122
vn 0.999922 0.000000 0.012505
vn -0.999222 -0.037512 -0.012189
vn -0.999164 0.022092 -0.034362
vn 0.999975 0.000000 0.007089
vn 0.000000 1.000000 0.000000
vn 0.389881 0.038779 0.920048
vn 0.315615 0.014986 0.948769
vn -0.995237 -0.096965 0.010033
vn 0.239170 -0.008910 0.970937
# 50 normals

vt 0.250000 1.000000 0.000000
vt 0.250000 0.999942 0.000000
vt 0.000000 0.999942 0.000000
vt 0.000000 1.000000 0.000000
vt 0.500000 1.000000 0.000000
vt 0.500000 0.999942 0.000000
vt 0.750000 1.000000 0.000000
vt 0.750000 0.999942 0.000000
vt 1.000000 1.000000 0.000000
vt 1.000000 0.999942 0.000000
vt 0.250000 0.913992 0.000000
vt 0.000000 0.913992 0.000000
vt 0.500000 0.913992 0.000000
vt 0.750000 0.913992 0.000000
vt 1.000000 0.913992 0.000000
vt 0.250000 0.836706 0.000000
vt 0.000000 0.836706 0.000000
vt 0.500000 0.836706 0.000000
vt 0.750000 0.836706 0.000000
vt 1.000000 0.836706 0.000000
vt 0.250000 0.767096 0.000000
vt 0.000000 0.767096 0.000000
vt 0.500000 0.767096 0.000000
vt 0.750000 0.767096 0.000000
vt 1.000000 0.767096 0.000000
vt 0.250000 0.704487 0.000000
vt 0.000000 0.704487 0.000000
vt 0.500000 0.704487 0.000000
vt 0.750000 0.704487 0.000000
vt 1.000000 0.704487 0.000000
vt 0.250000 0.648111 0.000000
vt 0.000000 0.648111 0.000000
vt 0.500000 0.648111 0.000000
vt 0.750000 0.648111 0.000000
vt 1.000000 0.648111 0.000000
vt 0.250000 0.551700 0.000000
vt 0.000000 0.551700 0.000000
vt 0.500000 0.551700 0.000000
vt 0.750000 0.551700 0.000000
vt 1.000000 0.551700 0.000000
vt 0.250000 0.510637 0.000000
vt 0.000000 0.510637 0.000000
vt 0.500000 0.510637 0.000000
vt 0.750000 0.510637 0.000000
vt 1.000000 0.510637 0.000000
vt 0.250000 0.507431 0.000000
vt 0.000000 0.504225 0.000000
vt 0.750000 0.014903 0.000000
vt 1.000000 0.014903 0.000000
vt 1.000000 0.000000 0.000000
vt 0.750000 0.000000 0.000000
vt 0.750000 0.504225 0.000000
vt 0.500000 0.507431 0.000000
vt 1.000000 0.504225 0.000000
vt 0.250000 0.504225 0.000000
vt 0.250000 0.463143 0.000000
vt 0.000000 0.463143 0.000000
vt 0.500000 0.504225 0.000000
vt 0.500000 0.463143 0.000000
vt 0.750000 0.463143 0.000000
vt 1.000000 0.463143 0.000000
vt 0.250000 0.417504 0.000000
vt 0.000000 0.417504 0.000000
vt 0.500000 0.417504 0.000000
vt 0.750000 0.417504 0.000000
vt 1.000000 0.417504 0.000000
vt 0.250000 0.366786 0.000000
vt 0.000000 0.366786 0.000000
vt 0.500000 0.366786 0.000000
vt 0.750000 0.366786 0.000000
vt 1.000000 0.366786 0.000000
vt 0.250000 0.310396 0.000000
vt 0.000000 0.310396 0.000000
vt 0.500000 0.310396 0.000000
vt 0.750000 0.310396 0.000000
vt 1.000000 0.310396 0.000000
vt 0.250000 0.247831 0.000000
vt 0.000000 0.247831 0.000000
vt 0.500000 0.247831 0.000000
vt 0.750000 0.247831 0.000000
vt 1.000000 0.247831 0.000000
vt 0.250000 0.178216 0.000000
vt 0.000000 0.178216 0.000000
vt 0.500000 0.178216 0.000000
vt 0.750000 0.178216 0.000000
vt 1.000000 0.178216 0.000000
vt 0.250000 0.100860 0.000000
vt 0.000000 0.100860 0.000000
vt 0.500000 0.100860 0.000000
vt 0.750000 0.100860 0.000000
vt 1.000000 0.100860 0.000000
vt 0.250000 0.014903 0.000000
vt 0.000000 0.014903 0.000000
vt 0.327992 0.014903 0.000000
vt 0.500000 0.014903 0.000000
vt 0.250000 0.000000 0.000000
vt 0.000000 0.000000 0.000000
vt 0.500000 0.000000 0.000000
# 98 texture coordinates

o platform9
usemtl default
f 1/4/1 5/3/1 6/2/1 2/1/1
f 6/2/2 7/6/2 3/5/2 2/1/2
f 3/5/3 7/6/3 8/8/3 4/7/3
f 8/8/5 5/10/5 1/9/4 4/7/4
f 9/12/6 10/11/6 6/2/6 5/3/6
f 10/11/8 11/13/8 7/6/7 6/2/7
f 11/13/3 12/14/3 8/8/3 7/6/3
f 12/14/10 9/15/10 5/10/9 8/8/9
f 13/17/6 14/16/6 10/11/6 9/12/6
f 14/16/11 15/18/11 11/13/8 10/11/8
f 15/18/3 16/19/3 12/14/3 11/13/3
f 16/19/12 13/20/12 9/15/10 12/14/10
f 17/22/6 18/21/6 14/16/6 13/17/6
f 18/21/11 19/23/11 15/18/11 14/16/11
f 19/23/3 20/24/3 16/19/3 15/18/3
f 20/24/12 17/25/12 13/20/12 16/19/12
f 21/27/6 22/26/6 18/21/6 17/22/6
f 22/26/11 23/28/11 19/23/11 18/21/11
f 23/28/3 24/29/3 20/24/3 19/23/3
f 24/29/12 21/30/12 17/25/12 20/24/12
f 25/32/6 26/31/6 22/26/6 21/27/6
f 26/31/13 27/33/13 23/28/11 22/26/11
f 27/33/3 28/34/3 24/29/3 23/28/3
f 28/34/14 25/35/14 21/30/12 24/29/12
f 29/37/6 30/36/6 26/31/6 25/32/6
f 30/36/15 31/38/15 27/33/13 26/31/13
f 31/38/3 32/39/3 28/34/3 27/33/3
f 32/39/16 29/40/16 25/35/14 28/34/14
f 33/42/6 34/41/6 30/36/6 29/37/6
f 34/41/17 35/43/17 31/38/15 30/36/15
f 35/43/3 36/44/3 32/39/3 31/38/3
f 36/44/18 33/45/18 29/40/16 32/39/16
f 33/42/6 37/47/6 34/46/6
f 4/51/4 1/50/4 50/49/19 51/48/19
f 35/53/3 40/52/3 36/44/3
f 40/52/20 37/54/20 33/45/20 36/44/20
f 41/57/21 30/56/21 34/55/6 37/47/6
f 30/56/23 31/59/23 35/58/22 34/55/22
f 31/59/24 44/60/24 40/52/3 35/58/3
f 44/60/26 41/61/26 37/54/25 40/52/25
f 45/63/27 46/62/27 30/56/21 41/57/21
f 46/62/28 47/64/28 31/59/23 30/56/23
f 47/64/29 48/65/29 44/60/24 31/59/24
f 48/65/30 45/66/30 41/61/26 44/60/26
f 49/68/31 26/67/31 46/62/27 45/63/27
f 26/67/32 28/69/32 47/64/28 46/62/28
f 28/69/33 52/70/33 48/65/29 47/64/29
f 52/70/34 49/71/34 45/66/30 48/65/30
f 53/73/6 22/72/6 26/67/31 49/68/31
f 22/72/35 24/74/35 28/69/32 26/67/32
f 24/74/3 56/75/3 52/70/33 28/69/33
f 56/75/36 53/76/36 49/71/34 52/70/34
f 57/78/6 18/77/6 22/72/6 53/73/6
f 18/77/37 19/79/37 24/74/35 22/72/35
f 19/79/3 43/80/3 56/75/3 24/74/3
f 43/80/38 57/81/38 53/76/36 56/75/36
f 54/83/6 14/82/6 18/77/6 57/78/6
f 14/82/12 15/84/12 19/79/37 18/77/37
f 15/84/3 42/85/3 43/80/3 19/79/3
f 42/85/39 54/86/39 57/81/38 43/80/38
f 39/88/6 10/87/6 14/82/6 54/83/6
f 10/87/41 11/89/40 15/84/12 14/82/12
f 11/89/3 55/90/3 42/85/3 15/84/3
f 55/90/42 39/91/42 54/86/39 42/85/39
f 50/93/6 6/92/6 10/87/6 39/88/6
f 6/92/0 38/94/43 7/95/44 11/89/40 10/87/41
f 7/95/3 51/48/3 55/90/3 11/89/3
f 51/48/45 50/49/45 39/91/42 55/90/42
f 50/93/6 1/97/46 2/96/46 6/92/6
f 2/96/0 3/98/50 7/95/50 38/94/48 6/92/47
f 3/98/3 4/51/3 51/48/3 7/95/3

