# Blender 3.4.1
# www.blender.org
mtllib platforms-2.mtl
o Curve
v 0.048704 0.000000 -0.082301
v 0.025143 0.000000 -0.046223
v 0.026819 0.000000 -0.045406
v 0.028449 0.000000 -0.044513
v 0.030031 0.000000 -0.043545
v 0.031563 0.000000 -0.042505
v 0.033042 0.000000 -0.041394
v 0.034466 0.000000 -0.040216
v 0.035833 0.000000 -0.038971
v 0.037140 0.000000 -0.037662
v 0.038384 0.000000 -0.036291
v 0.039564 0.000000 -0.034861
v 0.040678 0.000000 -0.033372
v 0.041721 0.000000 -0.031828
v 0.042690 0.000000 -0.030235
v 0.043579 0.000000 -0.028603
v 0.044388 0.000000 -0.026934
v 0.045115 0.000000 -0.025232
v 0.045760 0.000000 -0.023498
v 0.046322 0.000000 -0.021737
v 0.046800 0.000000 -0.019952
v 0.047193 0.000000 -0.018145
v 0.047500 0.000000 -0.016319
v 0.047720 0.000000 -0.014478
v 0.047852 0.000000 -0.012624
v 0.047897 0.000000 -0.010760
v 0.047895 0.000000 -0.010427
v 0.047891 0.000000 -0.010093
v 0.047884 0.000000 -0.009759
v 0.047875 0.000000 -0.009426
v 0.047862 0.000000 -0.009092
v 0.047847 0.000000 -0.008759
v 0.047829 0.000000 -0.008426
v 0.047808 0.000000 -0.008092
v 0.047784 0.000000 -0.007760
v 0.047758 0.000000 -0.007427
v 0.047728 0.000000 -0.007094
v 0.047696 0.000000 -0.006762
v 0.048542 0.000000 -0.006762
v 0.050879 0.000000 -0.006762
v 0.054411 0.000000 -0.006762
v 0.058837 0.000000 -0.006762
v 0.063860 0.000000 -0.006762
v 0.069182 0.000000 -0.006762
v 0.074504 0.000000 -0.006762
v 0.079527 0.000000 -0.006762
v 0.083954 0.000000 -0.006762
v 0.087485 0.000000 -0.006762
v 0.089823 0.000000 -0.006762
v 0.090668 0.000000 -0.006762
v 0.090670 0.000000 -0.006802
v 0.090676 0.000000 -0.006919
v 0.090684 0.000000 -0.007104
v 0.090694 0.000000 -0.007352
v 0.090705 0.000000 -0.007656
v 0.090718 0.000000 -0.008008
v 0.090730 0.000000 -0.008402
v 0.090741 0.000000 -0.008831
v 0.090752 0.000000 -0.009288
v 0.090760 0.000000 -0.009767
v 0.090765 0.000000 -0.010260
v 0.090767 0.000000 -0.010760
v 0.090419 0.000000 -0.018363
v 0.089394 0.000000 -0.025769
v 0.087723 0.000000 -0.032948
v 0.085437 0.000000 -0.039871
v 0.082567 0.000000 -0.046505
v 0.079144 0.000000 -0.052820
v 0.075198 0.000000 -0.058787
v 0.070760 0.000000 -0.064373
v 0.065861 0.000000 -0.069548
v 0.060531 0.000000 -0.074282
v 0.054802 0.000000 -0.078543
v 0.048704 0.015436 -0.082301
v 0.025143 0.015436 -0.046223
v 0.026819 0.015436 -0.045406
v 0.028449 0.015436 -0.044513
v 0.030031 0.015436 -0.043545
v 0.031563 0.015436 -0.042505
v 0.033042 0.015436 -0.041394
v 0.034466 0.015436 -0.040216
v 0.035833 0.015436 -0.038971
v 0.037140 0.015436 -0.037662
v 0.038384 0.015436 -0.036291
v 0.039564 0.015436 -0.034861
v 0.040678 0.015436 -0.033372
v 0.041721 0.015436 -0.031828
v 0.042690 0.015436 -0.030235
v 0.043579 0.015436 -0.028603
v 0.044388 0.015436 -0.026934
v 0.045115 0.015436 -0.025232
v 0.045760 0.015436 -0.023498
v 0.046322 0.015436 -0.021737
v 0.046800 0.015436 -0.019952
v 0.047193 0.015436 -0.018145
v 0.047500 0.015436 -0.016319
v 0.047720 0.015436 -0.014478
v 0.047852 0.015436 -0.012624
v 0.047897 0.015436 -0.010760
v 0.047895 0.015436 -0.010427
v 0.047891 0.015436 -0.010093
v 0.047884 0.015436 -0.009759
v 0.047875 0.015436 -0.009426
v 0.047862 0.015436 -0.009092
v 0.047847 0.015436 -0.008759
v 0.047829 0.015436 -0.008426
v 0.047808 0.015436 -0.008092
v 0.047784 0.015436 -0.007760
v 0.047758 0.015436 -0.007427
v 0.047728 0.015436 -0.007094
v 0.047696 0.015436 -0.006762
v 0.048542 0.015436 -0.006762
v 0.050879 0.015436 -0.006762
v 0.054411 0.015436 -0.006762
v 0.058837 0.015436 -0.006762
v 0.063860 0.015436 -0.006762
v 0.069182 0.015436 -0.006762
v 0.074504 0.015436 -0.006762
v 0.079527 0.015436 -0.006762
v 0.083954 0.015436 -0.006762
v 0.087485 0.015436 -0.006762
v 0.089823 0.015436 -0.006762
v 0.090668 0.015436 -0.006762
v 0.090670 0.015436 -0.006802
v 0.090676 0.015436 -0.006919
v 0.090684 0.015436 -0.007104
v 0.090694 0.015436 -0.007352
v 0.090705 0.015436 -0.007656
v 0.090718 0.015436 -0.008008
v 0.090730 0.015436 -0.008402
v 0.090741 0.015436 -0.008831
v 0.090752 0.015436 -0.009288
v 0.090760 0.015436 -0.009767
v 0.090765 0.015436 -0.010260
v 0.090767 0.015436 -0.010760
v 0.090419 0.015436 -0.018363
v 0.089394 0.015436 -0.025769
v 0.087723 0.015436 -0.032948
v 0.085437 0.015436 -0.039871
v 0.082567 0.015436 -0.046505
v 0.079144 0.015436 -0.052820
v 0.075198 0.015436 -0.058787
v 0.070760 0.015436 -0.064373
v 0.065861 0.015436 -0.069548
v 0.060531 0.015436 -0.074282
v 0.054802 0.015436 -0.078543
vn -0.0000 -1.0000 -0.0000
vn -0.0000 1.0000 -0.0000
vn -0.8009 -0.0000 0.5989
vn 0.9989 -0.0000 0.0461
vn 0.8792 -0.0000 -0.4765
vn -0.9929 -0.0000 0.1188
vn -0.8285 -0.0000 0.5600
vn 0.9988 -0.0000 0.0482
vn 0.9996 -0.0000 0.0269
vn 0.9178 -0.0000 -0.3970
vn -0.0000 -0.0000 1.0000
vn -0.9985 -0.0000 -0.0542
vn -0.9974 -0.0000 0.0714
vn -0.4383 -0.0000 0.8988
vn 0.9740 -0.0000 -0.2266
vn -0.9980 -0.0000 -0.0626
vn -0.9997 -0.0000 0.0237
vn -0.8543 -0.0000 0.5198
vn -0.4807 -0.0000 0.8769
vn -1.0000 -0.0000 -0.0040
vn -0.8781 -0.0000 0.4784
vn -0.5218 -0.0000 0.8530
vn 0.9995 -0.0000 0.0310
vn -0.9975 -0.0000 -0.0710
vn -0.8999 -0.0000 0.4361
vn -0.5618 -0.0000 0.8273
vn 1.0000 -0.0000 0.0039
vn -0.9999 -0.0000 -0.0124
vn -0.9196 -0.0000 0.3928
vn -0.6004 -0.0000 0.7997
vn 0.9994 -0.0000 0.0347
vn -0.8373 -0.0000 -0.5468
vn -0.9969 -0.0000 -0.0793
vn -0.6376 -0.0000 0.7704
vn 0.9999 -0.0000 0.0109
vn 0.9906 -0.0000 -0.1371
vn 0.5247 -0.0000 -0.8513
vn -0.9998 -0.0000 -0.0208
vn -0.9372 -0.0000 0.3488
vn -0.6734 -0.0000 0.7393
vn 0.9993 -0.0000 0.0380
vn 0.5968 -0.0000 -0.8024
vn -0.9962 -0.0000 -0.0877
vn -0.9527 -0.0000 0.3039
vn 0.9999 -0.0000 0.0170
vn 0.9496 -0.0000 -0.3135
vn 0.6641 -0.0000 -0.7477
vn -0.9996 -0.0000 -0.0291
vn -0.9660 -0.0000 0.2585
vn -0.7076 -0.0000 0.7066
vn 0.9992 -0.0000 0.0410
vn 0.7262 -0.0000 -0.6875
vn -0.9993 -0.0000 -0.0375
vn -0.9772 -0.0000 0.2124
vn -0.7404 -0.0000 0.6722
vn 0.9990 -0.0000 0.0437
vn 0.7830 -0.0000 -0.6221
vn -0.9954 -0.0000 -0.0960
vn -0.7714 -0.0000 0.6363
vn 0.9998 -0.0000 0.0223
vn 0.9990 -0.0000 -0.0458
vn 0.8341 -0.0000 -0.5517
vn -0.9989 -0.0000 -0.0459
vn -0.9862 -0.0000 0.1658
vt 0.000000 0.000000
vt 0.013889 0.000000
vt 0.027778 0.000000
vt 0.041667 0.000000
vt 0.055556 0.000000
vt 0.069444 0.000000
vt 0.083333 0.000000
vt 0.097222 0.000000
vt 0.111111 0.000000
vt 0.125000 0.000000
vt 0.138889 0.000000
vt 0.152778 0.000000
vt 0.166667 0.000000
vt 0.180556 0.000000
vt 0.194444 0.000000
vt 0.208333 0.000000
vt 0.222222 0.000000
vt 0.236111 0.000000
vt 0.250000 0.000000
vt 0.263889 0.000000
vt 0.277778 0.000000
vt 0.291667 0.000000
vt 0.305556 0.000000
vt 0.319444 0.000000
vt 0.333333 0.000000
vt 0.347222 0.000000
vt 0.361111 0.000000
vt 0.375000 0.000000
vt 0.388889 0.000000
vt 0.402778 0.000000
vt 0.416667 0.000000
vt 0.430556 0.000000
vt 0.444444 0.000000
vt 0.458333 0.000000
vt 0.472222 0.000000
vt 0.486111 0.000000
vt 0.500000 0.000000
vt 0.513889 0.000000
vt 0.527778 0.000000
vt 0.541667 0.000000
vt 0.555556 0.000000
vt 0.569444 0.000000
vt 0.583333 0.000000
vt 0.597222 0.000000
vt 0.611111 0.000000
vt 0.625000 0.000000
vt 0.638889 0.000000
vt 0.652778 0.000000
vt 0.666667 0.000000
vt 0.680556 0.000000
vt 0.694444 0.000000
vt 0.708333 0.000000
vt 0.722222 0.000000
vt 0.736111 0.000000
vt 0.750000 0.000000
vt 0.763889 0.000000
vt 0.777778 0.000000
vt 0.791667 0.000000
vt 0.805556 0.000000
vt 0.819444 0.000000
vt 0.833333 0.000000
vt 0.847222 0.000000
vt 0.861111 0.000000
vt 0.875000 0.000000
vt 0.888889 0.000000
vt 0.902778 0.000000
vt 0.916667 0.000000
vt 0.930556 0.000000
vt 0.944444 0.000000
vt 0.958333 0.000000
vt 0.972222 0.000000
vt 0.986111 0.000000
vt 1.000000 0.000000
vt 0.000000 0.000000
vt 0.013889 0.000000
vt 0.027778 0.000000
vt 0.041667 0.000000
vt 0.055556 0.000000
vt 0.069444 0.000000
vt 0.083333 0.000000
vt 0.097222 0.000000
vt 0.111111 0.000000
vt 0.125000 0.000000
vt 0.138889 0.000000
vt 0.152778 0.000000
vt 0.166667 0.000000
vt 0.180556 0.000000
vt 0.194444 0.000000
vt 0.208333 0.000000
vt 0.222222 0.000000
vt 0.236111 0.000000
vt 0.250000 0.000000
vt 0.263889 0.000000
vt 0.277778 0.000000
vt 0.291667 0.000000
vt 0.305556 0.000000
vt 0.319444 0.000000
vt 0.333333 0.000000
vt 0.347222 0.000000
vt 0.361111 0.000000
vt 0.375000 0.000000
vt 0.388889 0.000000
vt 0.402778 0.000000
vt 0.416667 0.000000
vt 0.430556 0.000000
vt 0.444444 0.000000
vt 0.458333 0.000000
vt 0.472222 0.000000
vt 0.486111 0.000000
vt 0.500000 0.000000
vt 0.513889 0.000000
vt 0.527778 0.000000
vt 0.541667 0.000000
vt 0.555556 0.000000
vt 0.569444 0.000000
vt 0.583333 0.000000
vt 0.597222 0.000000
vt 0.611111 0.000000
vt 0.625000 0.000000
vt 0.638889 0.000000
vt 0.652778 0.000000
vt 0.666667 0.000000
vt 0.680556 0.000000
vt 0.694444 0.000000
vt 0.708333 0.000000
vt 0.722222 0.000000
vt 0.736111 0.000000
vt 0.750000 0.000000
vt 0.763889 0.000000
vt 0.777778 0.000000
vt 0.791667 0.000000
vt 0.805556 0.000000
vt 0.819444 0.000000
vt 0.833333 0.000000
vt 0.847222 0.000000
vt 0.861111 0.000000
vt 0.875000 0.000000
vt 0.888889 0.000000
vt 0.902778 0.000000
vt 0.916667 0.000000
vt 0.930556 0.000000
vt 0.944444 0.000000
vt 0.958333 0.000000
vt 0.972222 0.000000
vt 0.986111 0.000000
vt 1.000000 0.000000
s 0
usemtl SVGMat
f 2/2/1 1/1/1 73/73/1
f 2/2/1 73/73/1 72/72/1
f 2/2/1 72/72/1 71/71/1
f 2/2/1 71/71/1 70/70/1
f 2/2/1 70/70/1 69/69/1
f 2/2/1 69/69/1 68/68/1
f 2/2/1 68/68/1 67/67/1
f 2/2/1 67/67/1 66/66/1
f 3/3/1 2/2/1 66/66/1
f 4/4/1 3/3/1 66/66/1
f 5/5/1 4/4/1 66/66/1
f 6/6/1 5/5/1 66/66/1
f 7/7/1 6/6/1 66/66/1
f 8/8/1 7/7/1 66/66/1
f 9/9/1 8/8/1 66/66/1
f 9/9/1 66/66/1 65/65/1
f 10/10/1 9/9/1 65/65/1
f 11/11/1 10/10/1 65/65/1
f 12/12/1 11/11/1 65/65/1
f 13/13/1 12/12/1 65/65/1
f 14/14/1 13/13/1 65/65/1
f 14/14/1 65/65/1 64/64/1
f 15/15/1 14/14/1 64/64/1
f 16/16/1 15/15/1 64/64/1
f 17/17/1 16/16/1 64/64/1
f 18/18/1 17/17/1 64/64/1
f 18/18/1 64/64/1 63/63/1
f 19/19/1 18/18/1 63/63/1
f 20/20/1 19/19/1 63/63/1
f 21/21/1 20/20/1 63/63/1
f 22/22/1 21/21/1 63/63/1
f 22/22/1 63/63/1 62/62/1
f 23/23/1 22/22/1 62/62/1
f 24/24/1 23/23/1 62/62/1
f 25/25/1 24/24/1 62/62/1
f 26/26/1 25/25/1 62/62/1
f 27/27/1 26/26/1 62/62/1
f 27/27/1 62/62/1 61/61/1
f 28/28/1 27/27/1 61/61/1
f 28/28/1 61/61/1 60/60/1
f 29/29/1 28/28/1 60/60/1
f 29/29/1 60/60/1 59/59/1
f 30/30/1 29/29/1 59/59/1
f 31/31/1 30/30/1 59/59/1
f 31/31/1 59/59/1 58/58/1
f 32/32/1 31/31/1 58/58/1
f 32/32/1 58/58/1 57/57/1
f 33/33/1 32/32/1 57/57/1
f 34/34/1 33/33/1 57/57/1
f 34/34/1 57/57/1 56/56/1
f 35/35/1 34/34/1 56/56/1
f 35/35/1 56/56/1 55/55/1
f 36/36/1 35/35/1 55/55/1
f 36/36/1 55/55/1 54/54/1
f 37/37/1 36/36/1 54/54/1
f 37/37/1 54/54/1 53/53/1
f 37/37/1 53/53/1 52/52/1
f 38/38/1 37/37/1 52/52/1
f 38/38/1 52/52/1 51/51/1
f 38/38/1 51/51/1 50/50/1
f 39/39/2 38/38/2 50/50/2
f 40/40/2 39/39/2 50/50/2
f 41/41/2 40/40/2 50/50/2
f 42/42/2 41/41/2 50/50/2
f 43/43/2 42/42/2 50/50/2
f 44/44/2 43/43/2 50/50/2
f 45/45/2 44/44/2 50/50/2
f 46/46/2 45/45/2 50/50/2
f 47/47/2 46/46/2 50/50/2
f 48/48/2 47/47/2 50/50/2
f 49/49/2 48/48/2 50/50/2
f 75/75/2 146/146/2 74/74/2
f 75/75/2 145/145/2 146/146/2
f 75/75/2 144/144/2 145/145/2
f 75/75/2 143/143/2 144/144/2
f 75/75/2 142/142/2 143/143/2
f 75/75/2 141/141/2 142/142/2
f 75/75/2 140/140/2 141/141/2
f 75/75/2 139/139/2 140/140/2
f 76/76/2 139/139/2 75/75/2
f 77/77/2 139/139/2 76/76/2
f 78/78/2 139/139/2 77/77/2
f 79/79/2 139/139/2 78/78/2
f 80/80/2 139/139/2 79/79/2
f 81/81/2 139/139/2 80/80/2
f 82/82/2 139/139/2 81/81/2
f 82/82/2 138/138/2 139/139/2
f 83/83/2 138/138/2 82/82/2
f 84/84/2 138/138/2 83/83/2
f 85/85/2 138/138/2 84/84/2
f 86/86/2 138/138/2 85/85/2
f 87/87/2 138/138/2 86/86/2
f 87/87/2 137/137/2 138/138/2
f 88/88/2 137/137/2 87/87/2
f 89/89/2 137/137/2 88/88/2
f 90/90/2 137/137/2 89/89/2
f 91/91/2 137/137/2 90/90/2
f 91/91/2 136/136/2 137/137/2
f 92/92/2 136/136/2 91/91/2
f 93/93/2 136/136/2 92/92/2
f 94/94/2 136/136/2 93/93/2
f 95/95/2 136/136/2 94/94/2
f 95/95/2 135/135/2 136/136/2
f 96/96/2 135/135/2 95/95/2
f 97/97/2 135/135/2 96/96/2
f 98/98/2 135/135/2 97/97/2
f 99/99/2 135/135/2 98/98/2
f 100/100/2 135/135/2 99/99/2
f 100/100/2 134/134/2 135/135/2
f 101/101/2 134/134/2 100/100/2
f 101/101/2 133/133/2 134/134/2
f 102/102/2 133/133/2 101/101/2
f 102/102/2 132/132/2 133/133/2
f 103/103/2 132/132/2 102/102/2
f 104/104/2 132/132/2 103/103/2
f 104/104/2 131/131/2 132/132/2
f 105/105/2 131/131/2 104/104/2
f 105/105/2 130/130/2 131/131/2
f 106/106/2 130/130/2 105/105/2
f 107/107/2 130/130/2 106/106/2
f 107/107/2 129/129/2 130/130/2
f 108/108/2 129/129/2 107/107/2
f 108/108/2 128/128/2 129/129/2
f 109/109/2 128/128/2 108/108/2
f 109/109/2 127/127/2 128/128/2
f 110/110/2 127/127/2 109/109/2
f 110/110/2 126/126/2 127/127/2
f 110/110/2 125/125/2 126/126/2
f 111/111/2 125/125/2 110/110/2
f 111/111/2 124/124/2 125/125/2
f 111/111/2 123/123/2 124/124/2
f 112/112/2 123/123/2 111/111/2
f 113/113/2 123/123/2 112/112/2
f 114/114/2 123/123/2 113/113/2
f 115/115/2 123/123/2 114/114/2
f 116/116/2 123/123/2 115/115/2
f 117/117/2 123/123/2 116/116/2
f 118/118/2 123/123/2 117/117/2
f 119/119/2 123/123/2 118/118/2
f 120/120/2 123/123/2 119/119/2
f 121/121/2 123/123/2 120/120/2
f 122/122/2 123/123/2 121/121/2
f 12/12/3 13/13/3 86/86/3 85/85/3
f 51/51/4 52/52/4 125/125/4 124/124/4
f 67/67/5 68/68/5 141/141/5 140/140/5
f 23/23/6 24/24/6 97/97/6 96/96/6
f 13/13/7 14/14/7 87/87/7 86/86/7
f 50/50/8 51/51/8 124/124/8 123/123/8
f 57/57/9 58/58/9 131/131/9 130/130/9
f 66/66/10 67/67/10 140/140/10 139/139/10
f 38/38/11 39/39/11 112/112/11 111/111/11
f 32/32/12 33/33/12 106/106/12 105/105/12
f 24/24/13 25/25/13 98/98/13 97/97/13
f 2/2/14 3/3/14 76/76/14 75/75/14
f 64/64/15 65/65/15 138/138/15 137/137/15
f 39/39/11 40/40/11 113/113/11 112/112/11
f 33/33/16 34/34/16 107/107/16 106/106/16
f 25/25/17 26/26/17 99/99/17 98/98/17
f 14/14/18 15/15/18 88/88/18 87/87/18
f 3/3/19 4/4/19 77/77/19 76/76/19
f 40/40/11 41/41/11 114/114/11 113/113/11
f 26/26/20 27/27/20 100/100/20 99/99/20
f 15/15/21 16/16/21 89/89/21 88/88/21
f 4/4/22 5/5/22 78/78/22 77/77/22
f 56/56/23 57/57/23 130/130/23 129/129/23
f 41/41/11 42/42/11 115/115/11 114/114/11
f 34/34/24 35/35/24 108/108/24 107/107/24
f 16/16/25 17/17/25 90/90/25 89/89/25
f 5/5/26 6/6/26 79/79/26 78/78/26
f 61/61/27 62/62/27 135/135/27 134/134/27
f 42/42/11 43/43/11 116/116/11 115/115/11
f 27/27/28 28/28/28 101/101/28 100/100/28
f 17/17/29 18/18/29 91/91/29 90/90/29
f 6/6/30 7/7/30 80/80/30 79/79/30
f 55/55/31 56/56/31 129/129/31 128/128/31
f 43/43/11 44/44/11 117/117/11 116/116/11
f 1/1/32 2/2/32 75/75/32 74/74/32
f 35/35/33 36/36/33 109/109/33 108/108/33
f 7/7/34 8/8/34 81/81/34 80/80/34
f 60/60/35 61/61/35 134/134/35 133/133/35
f 63/63/36 64/64/36 137/137/36 136/136/36
f 44/44/11 45/45/11 118/118/11 117/117/11
f 73/73/37 1/1/37 74/74/37 146/146/37
f 28/28/38 29/29/38 102/102/38 101/101/38
f 18/18/39 19/19/39 92/92/39 91/91/39
f 8/8/40 9/9/40 82/82/40 81/81/40
f 54/54/41 55/55/41 128/128/41 127/127/41
f 45/45/11 46/46/11 119/119/11 118/118/11
f 72/72/42 73/73/42 146/146/42 145/145/42
f 36/36/43 37/37/43 110/110/43 109/109/43
f 19/19/44 20/20/44 93/93/44 92/92/44
f 59/59/45 60/60/45 133/133/45 132/132/45
f 65/65/46 66/66/46 139/139/46 138/138/46
f 46/46/11 47/47/11 120/120/11 119/119/11
f 71/71/47 72/72/47 145/145/47 144/144/47
f 29/29/48 30/30/48 103/103/48 102/102/48
f 20/20/49 21/21/49 94/94/49 93/93/49
f 9/9/50 10/10/50 83/83/50 82/82/50
f 53/53/51 54/54/51 127/127/51 126/126/51
f 47/47/11 48/48/11 121/121/11 120/120/11
f 70/70/52 71/71/52 144/144/52 143/143/52
f 30/30/53 31/31/53 104/104/53 103/103/53
f 21/21/54 22/22/54 95/95/54 94/94/54
f 10/10/55 11/11/55 84/84/55 83/83/55
f 52/52/56 53/53/56 126/126/56 125/125/56
f 48/48/11 49/49/11 122/122/11 121/121/11
f 69/69/57 70/70/57 143/143/57 142/142/57
f 37/37/58 38/38/58 111/111/58 110/110/58
f 11/11/59 12/12/59 85/85/59 84/84/59
f 49/49/11 50/50/11 123/123/11 122/122/11
f 58/58/60 59/59/60 132/132/60 131/131/60
f 62/62/61 63/63/61 136/136/61 135/135/61
f 68/68/62 69/69/62 142/142/62 141/141/62
f 31/31/63 32/32/63 105/105/63 104/104/63
f 22/22/64 23/23/64 96/96/64 95/95/64
