# Apple ModelIO OBJ File: platform-for-procreate
mtllib platform-for-procreate.mtl
g platform_1.006
v 6.06225 0 17.99
v 8.16725 0 23.9433
v 5.76641 0 24.6285
v 4.05742 0 18.3338
v 3.42596 0 25.0945
v 2.30368 0 18.6211
v 0.750223 0 18.8357
v 1.14582 0 25.3496
v -0.653757 0 18.9609
v -1.07409 0 25.4021
v -1.95906 0 18.9805
v -3.23385 0 25.2603
v -3.2165 0 18.8779
v -5.33353 0 24.9328
v -4.47688 0 18.6367
v -7.37322 0 24.4277
v -5.79099 0 18.2404
v -9.35299 0 23.7535
v -7.20965 0 17.6727
v -11.2729 0 22.9185
v -8.78366 0 16.917
v -13.1331 0 21.931
v -10.5638 0 15.9569
v -14.9336 0 20.7994
v -16.6745 0 19.532
v -12.6009 0 14.776
v 6.06225 4 17.99
v 4.05742 4 18.3338
v 5.76641 4 24.6285
v 8.16725 4 23.9433
v 2.30368 4 18.6211
v 3.42596 4 25.0945
v 0.750223 4 18.8357
v 1.14582 4 25.3496
v -0.653757 4 18.9609
v -1.07409 4 25.4021
v -1.95906 4 18.9805
v -3.23385 4 25.2603
v -3.2165 4 18.8779
v -5.33353 4 24.9328
v -4.47688 4 18.6367
v -7.37322 4 24.4277
v -5.79099 4 18.2404
v -9.35299 4 23.7535
v -7.20965 4 17.6727
v -11.2729 4 22.9185
v -8.78366 4 16.917
v -13.1331 4 21.931
v -10.5638 4 15.9569
v -14.9336 4 20.7994
v -12.6009 4 14.776
v -16.6745 4 19.532
vn -0 -1 -0
vn -0 1 -0
vn -0.7595 -0 -0.6505
vn -0.1541 -0 0.988
vn -0.015 -0 -0.9999
vn 0.5015 -0 -0.8651
vn -0.2404 -0 0.9707
vn -0.0889 -0 -0.996
vn 0.9428 -0 -0.3334
vn 0.4747 -0 -0.8802
vn -0.3224 -0 0.9466
vn -0.1368 -0 -0.9906
vn 0.2745 -0 0.9616
vn 0.4328 -0 -0.9015
vn -0.3988 -0 0.917
vn -0.1617 -0 -0.9868
vn 0.1953 -0 0.9808
vn 0.3716 -0 -0.9284
vn -0.4689 -0 0.8833
vn -0.169 -0 -0.9856
vn 0.1112 -0 0.9938
vn 0.2887 -0 -0.9574
vn -0.5321 -0 0.8467
vn 0.0236 -0 0.9997
vn 0.188 -0 -0.9822
vn -0.5886 -0 0.8085
vn -0.0655 -0 0.9979
vn 0.0813 -0 -0.9967
vt 0.667827 0.842587
vt 0.458194 0.959959
vt 0.416997 0.874361
vt 0.641992 0.769632
vt 0.384413 0.789612
vt 0.619893 0.705729
vt 0.601817 0.648866
vt 0.360125 0.705762
vt 0.588055 0.597031
vt 0.343822 0.622862
vt 0.578892 0.548213
vt 0.335189 0.540964
vt 0.57462 0.500401
vt 0.333913 0.460118
vt 0.575526 0.451584
vt 0.339681 0.380376
vt 0.581898 0.399751
vt 0.352178 0.301788
vt 0.594026 0.34289
vt 0.371091 0.224405
vt 0.612198 0.278991
vt 0.396106 0.148279
vt 0.636702 0.206041
vt 0.42691 0.073461
vt 0.46319 0
vt 0.667827 0.122031
vt 0.333913 0.117373
vt 0.308079 0.190326
vt 0.083084 0.085598
vt 0.12428 0
vt 0.28598 0.25423
vt 0.050499 0.170347
vt 0.267904 0.311093
vt 0.026212 0.254197
vt 0.254141 0.362928
vt 0.009909 0.337097
vt 0.244979 0.411746
vt 0.001276 0.418995
vt 0.240707 0.459558
vt 0 0.499841
vt 0.241613 0.508375
vt 0.005767 0.579583
vt 0.247985 0.560208
vt 0.018264 0.658171
vt 0.260113 0.617069
vt 0.037178 0.735554
vt 0.278285 0.680968
vt 0.062193 0.81168
vt 0.302788 0.753918
vt 0.092997 0.886498
vt 0.333913 0.837928
vt 0.129277 0.959959
vt 0.972213 0.76174
vt 0.972213 1
vt 0.82002 1
vt 0.82002 0.76174
vt 0.82002 0.476236
vt 0.82002 0.555393
vt 0.667827 0.555393
vt 0.667827 0.476236
vt 0.972213 0.460455
vt 0.972213 0.493328
vt 0.82002 0.493328
vt 0.82002 0.460455
vt 0.972213 0.197973
vt 0.972213 0.266173
vt 0.82002 0.266173
vt 0.82002 0.197973
vt 0.82002 0.396835
vt 0.667827 0.396835
vt 0.972213 0.422086
vt 0.82002 0.422086
vt 0.972213 0.521485
vt 0.82002 0.521485
vt 0.972213 0.140954
vt 0.82002 0.140954
vt 0.82002 0.317301
vt 0.667827 0.317301
vt 0.972213 0.377437
vt 0.82002 0.377437
vt 0.82002 0.867401
vt 0.82002 0.943703
vt 0.667827 0.943703
vt 0.667827 0.867401
vt 0.972213 0.093882
vt 0.82002 0.093882
vt 0.82002 0.237741
vt 0.667827 0.237741
vt 0.972213 0.325727
vt 0.82002 0.325727
vt 0.82002 0.79031
vt 0.667827 0.79031
vt 0.972213 0.055522
vt 0.82002 0.055522
vt 0.82002 0.158264
vt 0.667827 0.158264
vt 0.972213 0.266172
vt 0.82002 0.266172
vt 0.82002 0.712539
vt 0.667827 0.712539
vt 0.972213 0.024639
vt 0.82002 0.024639
vt 0.82002 0.078981
vt 0.667827 0.078981
vt 0.82002 0.634197
vt 0.667827 0.634197
vt 0.972213 0
vt 0.82002 0
vt 0.667827 0
usemtl 
f 1/1/1 2/2/1 3/3/1
f 1/1/1 3/3/1 4/4/1
f 4/4/1 3/3/1 5/5/1
f 4/4/1 5/5/1 6/6/1
f 6/6/1 5/5/1 7/7/1
f 5/5/1 8/8/1 7/7/1
f 7/7/1 8/8/1 9/9/1
f 8/8/1 10/10/1 9/9/1
f 9/9/1 10/10/1 11/11/1
f 10/10/1 12/12/1 11/11/1
f 11/11/1 12/12/1 13/13/1
f 12/12/1 14/14/1 13/13/1
f 13/13/1 14/14/1 15/15/1
f 14/14/1 16/16/1 15/15/1
f 15/15/1 16/16/1 17/17/1
f 16/16/1 18/18/1 17/17/1
f 17/17/1 18/18/1 19/19/1
f 18/18/1 20/20/1 19/19/1
f 19/19/1 20/20/1 21/21/1
f 20/20/1 22/22/1 21/21/1
f 21/21/1 22/22/1 23/23/1
f 22/22/1 24/24/1 23/23/1
f 23/23/1 24/24/1 25/25/1
f 23/23/1 25/25/1 26/26/1
f 27/27/2 28/28/2 29/29/2
f 27/27/2 29/29/2 30/30/2
f 28/28/2 31/31/2 32/32/2
f 28/28/2 32/32/2 29/29/2
f 31/31/2 33/33/2 32/32/2
f 33/33/2 34/34/2 32/32/2
f 33/33/2 35/35/2 34/34/2
f 35/35/2 36/36/2 34/34/2
f 35/35/2 37/37/2 36/36/2
f 37/37/2 38/38/2 36/36/2
f 37/37/2 39/39/2 38/38/2
f 39/39/2 40/40/2 38/38/2
f 39/39/2 41/41/2 40/40/2
f 41/41/2 42/42/2 40/40/2
f 41/41/2 43/43/2 42/42/2
f 43/43/2 44/44/2 42/42/2
f 43/43/2 45/45/2 44/44/2
f 45/45/2 46/46/2 44/44/2
f 45/45/2 47/47/2 46/46/2
f 47/47/2 48/48/2 46/46/2
f 47/47/2 49/49/2 48/48/2
f 49/49/2 50/50/2 48/48/2
f 49/49/2 51/51/2 52/52/2
f 49/49/2 52/52/2 50/50/2
f 26/53/3 25/54/3 52/55/3
f 26/53/3 52/55/3 51/56/3
f 14/57/4 12/58/4 38/59/4
f 14/57/4 38/59/4 40/60/4
f 9/61/5 11/62/5 37/63/5
f 9/61/5 37/63/5 35/64/5
f 23/65/6 26/66/6 51/67/6
f 23/65/6 51/67/6 49/68/6
f 16/69/7 14/57/7 40/60/7
f 16/69/7 40/60/7 42/70/7
f 7/71/8 9/61/8 35/64/8
f 7/71/8 35/64/8 33/72/8
f 2/73/9 1/53/9 27/56/9
f 2/73/9 27/56/9 30/74/9
f 21/75/10 23/65/10 49/68/10
f 21/75/10 49/68/10 47/76/10
f 18/77/11 16/69/11 42/70/11
f 18/77/11 42/70/11 44/78/11
f 6/79/12 7/71/12 33/72/12
f 6/79/12 33/72/12 31/80/12
f 3/81/13 2/82/13 30/83/13
f 3/81/13 30/83/13 29/84/13
f 19/85/14 21/75/14 47/76/14
f 19/85/14 47/76/14 45/86/14
f 20/87/15 18/77/15 44/78/15
f 20/87/15 44/78/15 46/88/15
f 4/89/16 6/79/16 31/80/16
f 4/89/16 31/80/16 28/90/16
f 5/91/17 3/81/17 29/84/17
f 5/91/17 29/84/17 32/92/17
f 17/93/18 19/85/18 45/86/18
f 17/93/18 45/86/18 43/94/18
f 22/95/19 20/87/19 46/88/19
f 22/95/19 46/88/19 48/96/19
f 1/97/20 4/89/20 28/90/20
f 1/97/20 28/90/20 27/98/20
f 8/99/21 5/91/21 32/92/21
f 8/99/21 32/92/21 34/100/21
f 15/101/22 17/93/22 43/94/22
f 15/101/22 43/94/22 41/102/22
f 24/103/23 22/95/23 48/96/23
f 24/103/23 48/96/23 50/104/23
f 10/105/24 8/99/24 34/100/24
f 10/105/24 34/100/24 36/106/24
f 13/107/25 15/101/25 41/102/25
f 13/107/25 41/102/25 39/108/25
f 25/108/26 24/103/26 50/104/26
f 25/108/26 50/104/26 52/109/26
f 12/58/27 10/105/27 36/106/27
f 12/58/27 36/106/27 38/59/27
f 11/62/28 13/73/28 39/74/28
f 11/62/28 39/74/28 37/63/28
s off
