# WaveFront *.obj file (generated by Cinema 4D)

mtllib ./platform9.mtl

v 0.807188 49.908004 -175.592197
v 0.802402 49.908004 -174.416281
v 0.802402 -0.091996 -174.416281
v 0.807188 -0.091996 -175.592197
v 0.377283 49.908004 -175.419991
v 1.208788 49.908004 -174.588486
v 1.208788 -0.091996 -174.588486
v 0.377283 -0.091996 -175.419991
v 0.205073 49.908004 -157.506461
v 1.380998 49.908004 -157.506461
v 1.380998 -0.091996 -157.506461
v 0.205073 -0.091996 -157.506461
v 0.205073 49.908004 -141.772573
v 1.380998 49.908004 -141.772573
v 1.380998 -0.091996 -141.772573
v 0.205073 -0.091996 -141.772573
v 0.205073 49.908004 -127.601490
v 1.380998 49.908004 -127.601490
v 1.380998 -0.091996 -127.601490
v 0.205073 -0.091996 -127.601490
v 0.205073 49.908004 -114.855630
v 1.380998 49.908004 -114.855630
v 1.380998 -0.091996 -114.855630
v 0.205073 -0.091996 -114.855630
v 0.205073 49.908004 -103.378593
v 1.380998 49.908004 -103.378593
v 1.380998 -0.091996 -103.378593
v 0.205073 -0.091996 -103.378593
v 0.205073 49.908004 -83.750801
v 1.380998 49.908004 -83.751628
v 1.380998 -0.091996 -83.751628
v 0.205073 -0.091996 -83.750801
v 0.387278 49.908004 -74.977576
v 1.222311 49.908004 -75.805538
v 1.222311 -0.091996 -75.805538
v 0.387278 -0.091996 -74.977576
v 2.519924 49.908004 -74.957051
v 1.700221 49.908004 -75.800193
v 1.700221 -0.091996 -75.800193
v 2.519924 -0.091996 -74.957051
v 2.850811 49.908004 -83.730048
v 1.675075 49.908004 -83.751213
v 1.675075 -0.091996 -83.751213
v 2.850811 -0.091996 -83.730048
v 3.015446 49.908004 -93.020214
v 1.839699 49.908004 -93.040677
v 1.839699 -0.091996 -93.040677
v 3.015446 -0.091996 -93.020214
v 3.191837 49.908004 -103.343757
v 2.016086 49.908004 -103.364040
v 2.016086 -0.091996 -103.364040
v 3.191837 -0.091996 -103.343757
v 3.391747 49.908004 -114.822107
v 2.215991 49.908004 -114.842116
v 2.215991 -0.091996 -114.842116
v 3.391747 -0.091996 -114.822107
v 3.603413 49.908004 -127.557381
v 2.427658 49.908004 -127.577397
v 2.427658 -0.091996 -127.577397
v 3.603413 -0.091996 -127.557381
v 3.850351 49.908004 -141.726904
v 2.674609 49.908004 -141.747686
v 2.674609 -0.091996 -141.747686
v 3.850351 -0.091996 -141.726904
v 4.132576 49.908004 -157.472736
v 2.956828 49.908004 -157.493150
v 2.956828 -0.091996 -157.493150
v 4.132576 -0.091996 -157.472736
v 4.259588 49.908004 -175.390080
v 3.417779 49.908004 -174.569008
v 3.417779 -0.091996 -174.569008
v 4.259588 -0.091996 -175.390080
# 72 vertices

vn 0.000000 1.000000 0.000000
vn -0.390174 0.000000 -0.920741
vn 0.000000 0.999999 0.000000
vn -0.160551 0.000000 -0.987027
vn -0.371825 0.000000 -0.928303
vn 0.999949 0.000000 -0.010081
vn 0.999987 0.000000 -0.005040
vn 0.000000 -1.000000 0.000000
vn 0.000000 -1.000000 0.000000
vn -0.999954 0.000000 -0.009613
vn -0.999988 0.000000 -0.004807
vn 1.000000 0.000000 0.000000
vn -1.000000 0.000000 0.000000
vn 1.000000 0.000000 0.000000
vn -1.000000 0.000000 0.000000
vn 0.999950 0.000000 0.009984
vn -0.999946 0.000000 0.010383
vn 0.999801 0.000000 0.019967
vn -0.999784 0.000000 0.020764
vn 0.011190 0.000000 -0.999937
vn -0.009623 0.000000 0.999954
vn -0.999995 0.000000 0.003163
vn -0.999974 0.000000 -0.007278
vn 0.999290 0.000000 0.037690
vn 0.999616 0.000000 0.027706
vn -0.999849 0.000000 -0.017401
vn 0.999849 0.000000 0.017401
vn -0.999851 0.000000 -0.017249
vn 0.999851 0.000000 0.017249
vn -0.999855 0.000000 -0.017016
vn 0.999855 0.000000 0.017016
vn -0.999855 0.000000 -0.017021
vn 0.999855 0.000000 0.017021
vn -0.999844 0.000000 -0.017673
vn 0.999844 0.000000 0.017673
vn -0.999748 0.000000 -0.022453
vn 0.999922 0.000000 0.012505
vn -0.999636 0.000000 -0.026984
vn 0.999975 0.000000 0.007089
vn 0.058302 0.000000 0.998299
vn 0.058444 0.000000 -0.998287
# 41 normals

vt 0.000000 1.000000 0.000000
vt 0.250000 1.000000 0.000000
vt 0.250000 0.999942 0.000000
vt 0.000000 0.999942 0.000000
vt 0.500000 1.000000 0.000000
vt 0.500000 0.999942 0.000000
vt 0.750000 1.000000 0.000000
vt 0.750000 0.999942 0.000000
vt 1.000000 1.000000 0.000000
vt 1.000000 0.999942 0.000000
vt 0.250000 0.913992 0.000000
vt 0.000000 0.913992 0.000000
vt 0.500000 0.913992 0.000000
vt 0.750000 0.913992 0.000000
vt 1.000000 0.913992 0.000000
vt 0.250000 0.836706 0.000000
vt 0.000000 0.836706 0.000000
vt 0.500000 0.836706 0.000000
vt 0.750000 0.836706 0.000000
vt 1.000000 0.836706 0.000000
vt 0.250000 0.767096 0.000000
vt 0.000000 0.767096 0.000000
vt 0.500000 0.767096 0.000000
vt 0.750000 0.767096 0.000000
vt 1.000000 0.767096 0.000000
vt 0.250000 0.704487 0.000000
vt 0.000000 0.704487 0.000000
vt 0.500000 0.704487 0.000000
vt 0.750000 0.704487 0.000000
vt 1.000000 0.704487 0.000000
vt 0.250000 0.648111 0.000000
vt 0.000000 0.648111 0.000000
vt 0.500000 0.648111 0.000000
vt 0.750000 0.648111 0.000000
vt 1.000000 0.648111 0.000000
vt 0.250000 0.551700 0.000000
vt 0.000000 0.551700 0.000000
vt 0.500000 0.551700 0.000000
vt 0.750000 0.551700 0.000000
vt 1.000000 0.551700 0.000000
vt 0.250000 0.510637 0.000000
vt 0.000000 0.510637 0.000000
vt 0.500000 0.510637 0.000000
vt 0.750000 0.510637 0.000000
vt 1.000000 0.510637 0.000000
vt 0.250000 0.504225 0.000000
vt 0.000000 0.504225 0.000000
vt 0.500000 0.504225 0.000000
vt 0.750000 0.504225 0.000000
vt 1.000000 0.504225 0.000000
vt 0.250000 0.463143 0.000000
vt 0.000000 0.463143 0.000000
vt 0.500000 0.463143 0.000000
vt 0.750000 0.463143 0.000000
vt 1.000000 0.463143 0.000000
vt 0.250000 0.417504 0.000000
vt 0.000000 0.417504 0.000000
vt 0.500000 0.417504 0.000000
vt 0.750000 0.417504 0.000000
vt 1.000000 0.417504 0.000000
vt 0.250000 0.366786 0.000000
vt 0.000000 0.366786 0.000000
vt 0.500000 0.366786 0.000000
vt 0.750000 0.366786 0.000000
vt 1.000000 0.366786 0.000000
vt 0.250000 0.310396 0.000000
vt 0.000000 0.310396 0.000000
vt 0.500000 0.310396 0.000000
vt 0.750000 0.310396 0.000000
vt 1.000000 0.310396 0.000000
vt 0.250000 0.247831 0.000000
vt 0.000000 0.247831 0.000000
vt 0.500000 0.247831 0.000000
vt 0.750000 0.247831 0.000000
vt 1.000000 0.247831 0.000000
vt 0.250000 0.178216 0.000000
vt 0.000000 0.178216 0.000000
vt 0.500000 0.178216 0.000000
vt 0.750000 0.178216 0.000000
vt 1.000000 0.178216 0.000000
vt 0.250000 0.100860 0.000000
vt 0.000000 0.100860 0.000000
vt 0.500000 0.100860 0.000000
vt 0.750000 0.100860 0.000000
vt 1.000000 0.100860 0.000000
vt 0.250000 0.014903 0.000000
vt 0.000000 0.014903 0.000000
vt 0.500000 0.014903 0.000000
vt 0.750000 0.014903 0.000000
vt 1.000000 0.014903 0.000000
vt 0.250000 0.000000 0.000000
vt 0.000000 0.000000 0.000000
vt 0.500000 0.000000 0.000000
vt 0.750000 0.000000 0.000000
vt 1.000000 0.000000 0.000000
# 95 texture coordinates

o platform9
usemtl default
f 5/4/1 6/3/1 2/2/1 1/1/1
f 6/3/2 7/6/2 3/5/2 2/2/2
f 7/6/3 8/8/3 4/7/3 3/5/3
f 8/8/5 5/10/5 1/9/4 4/7/4
f 9/12/1 10/11/1 6/3/1 5/4/1
f 10/11/7 11/13/7 7/6/6 6/3/6
f 11/13/9 12/14/9 8/8/8 7/6/8
f 12/14/11 9/15/11 5/10/10 8/8/10
f 13/17/1 14/16/1 10/11/1 9/12/1
f 14/16/12 15/18/12 11/13/7 10/11/7
f 15/18/9 16/19/9 12/14/9 11/13/9
f 16/19/13 13/20/13 9/15/11 12/14/11
f 17/22/1 18/21/1 14/16/1 13/17/1
f 18/21/12 19/23/12 15/18/12 14/16/12
f 19/23/9 20/24/9 16/19/9 15/18/9
f 20/24/13 17/25/13 13/20/13 16/19/13
f 21/27/1 22/26/1 18/21/1 17/22/1
f 22/26/12 23/28/12 19/23/12 18/21/12
f 23/28/9 24/29/9 20/24/9 19/23/9
f 24/29/13 21/30/13 17/25/13 20/24/13
f 25/32/1 26/31/1 22/26/1 21/27/1
f 26/31/14 27/33/14 23/28/12 22/26/12
f 27/33/9 28/34/9 24/29/9 23/28/9
f 28/34/15 25/35/15 21/30/13 24/29/13
f 29/37/1 30/36/1 26/31/1 25/32/1
f 30/36/16 31/38/16 27/33/14 26/31/14
f 31/38/9 32/39/9 28/34/9 27/33/9
f 32/39/17 29/40/17 25/35/15 28/34/15
f 33/42/1 34/41/1 30/36/1 29/37/1
f 34/41/18 35/43/18 31/38/16 30/36/16
f 35/43/9 36/44/9 32/39/9 31/38/9
f 36/44/19 33/45/19 29/40/17 32/39/17
f 37/47/1 38/46/1 34/41/1 33/42/1
f 38/46/20 39/48/20 35/43/20 34/41/20
f 39/48/9 40/49/9 36/44/9 35/43/9
f 40/49/21 37/50/21 33/45/21 36/44/21
f 41/52/1 42/51/1 38/46/1 37/47/1
f 42/51/23 43/53/23 39/48/22 38/46/22
f 43/53/9 44/54/9 40/49/9 39/48/9
f 44/54/25 41/55/25 37/50/24 40/49/24
f 45/57/1 46/56/1 42/51/1 41/52/1
f 46/56/26 47/58/26 43/53/23 42/51/23
f 47/58/9 48/59/9 44/54/9 43/53/9
f 48/59/27 45/60/27 41/55/25 44/54/25
f 49/62/1 50/61/1 46/56/1 45/57/1
f 50/61/28 51/63/28 47/58/26 46/56/26
f 51/63/9 52/64/9 48/59/9 47/58/9
f 52/64/29 49/65/29 45/60/27 48/59/27
f 53/67/1 54/66/1 50/61/1 49/62/1
f 54/66/30 55/68/30 51/63/28 50/61/28
f 55/68/9 56/69/9 52/64/9 51/63/9
f 56/69/31 53/70/31 49/65/29 52/64/29
f 57/72/1 58/71/1 54/66/1 53/67/1
f 58/71/32 59/73/32 55/68/30 54/66/30
f 59/73/9 60/74/9 56/69/9 55/68/9
f 60/74/33 57/75/33 53/70/31 56/69/31
f 61/77/1 62/76/1 58/71/1 57/72/1
f 62/76/34 63/78/34 59/73/32 58/71/32
f 63/78/9 64/79/9 60/74/9 59/73/9
f 64/79/35 61/80/35 57/75/33 60/74/33
f 65/82/1 66/81/1 62/76/1 61/77/1
f 66/81/36 67/83/36 63/78/34 62/76/34
f 67/83/9 68/84/9 64/79/9 63/78/9
f 68/84/37 65/85/37 61/80/35 64/79/35
f 69/87/1 70/86/1 66/81/1 65/82/1
f 70/86/38 71/88/38 67/83/36 66/81/36
f 71/88/9 72/89/9 68/84/9 67/83/9
f 72/89/39 69/90/39 65/85/37 68/84/37
f 1/92/1 2/91/1 70/86/1 69/87/1
f 2/91/40 3/93/40 71/88/40 70/86/40
f 3/93/9 4/94/9 72/89/9 71/88/9
f 4/94/4 1/95/4 69/90/41 72/89/41

