# WaveFront *.obj file (generated by Cinema 4D)

mtllib ./platform1.mtl

v 4.592501 49.908004 -500.605808
v 4.573443 49.908004 -499.430037
v 4.573443 -0.091996 -499.430037
v 4.592501 -0.091996 -500.605808
v 3.224395 49.908004 -500.617629
v 3.215752 49.908004 -499.441735
v 3.215752 -0.091996 -499.441735
v 3.224395 -0.091996 -500.617629
v -2.588391 49.908004 -500.652920
v -2.591961 49.908004 -499.476999
v -2.591961 -0.091996 -499.476999
v -2.588391 -0.091996 -500.652920
v -3.075308 49.908004 -500.480712
v -2.243803 49.908004 -499.649207
v -2.243803 -0.091996 -499.649207
v -3.075308 -0.091996 -500.480712
v -3.247519 49.908004 -451.499152
v -2.071593 49.908004 -451.499289
v -2.071593 -0.091996 -451.499289
v -3.247519 -0.091996 -451.499152
v -3.236935 49.908004 -406.355357
v -2.061009 49.908004 -406.355495
v -2.061009 -0.091996 -406.355495
v -3.236935 -0.091996 -406.355357
v -3.064725 49.908004 -365.311434
v -2.233220 49.908004 -366.142939
v -2.233220 -0.091996 -366.142939
v -3.064725 -0.091996 -365.311434
v -2.627000 49.908004 -365.139230
v -2.621556 49.908004 -366.315143
v -2.621556 -0.091996 -366.315143
v -2.627000 -0.091996 -365.139230
v 4.135902 49.908004 -365.247140
v 3.315541 49.908004 -366.089641
v 3.315541 -0.091996 -366.089641
v 4.135902 -0.091996 -365.247140
v 5.019151 49.908004 -406.274634
v 3.843404 49.908004 -406.295106
v 3.843404 -0.091996 -406.295106
v 5.019151 -0.091996 -406.274634
v 5.807021 49.908004 -451.418409
v 4.631274 49.908004 -451.438920
v 4.631274 -0.091996 -451.438920
v 5.807021 -0.091996 -451.418409
v 6.490047 49.908004 -500.389740
v 5.641582 49.908004 -499.575549
v 5.641582 -0.091996 -499.575549
v 6.490047 -0.091996 -500.389740
# 48 vertices

vn 0.000000 1.000000 0.000000
vn 0.063352 0.000000 0.997991
vn -0.007350 0.000000 0.999973
vn 0.000000 -1.000000 0.000000
vn 0.060967 0.000000 -0.998140
vn 0.007353 0.000000 -0.999973
vn -0.006069 0.000000 0.999982
vn -0.166161 0.000000 -0.986099
vn -0.443362 0.000000 -0.896343
vn 0.000000 0.999994 0.000000
vn -0.333436 0.000000 -0.942773
vn 0.999994 0.000000 -0.003577
vn 0.999998 0.000000 -0.001905
vn -0.999994 0.000000 -0.003516
vn -0.999999 0.000000 -0.001641
vn 0.999998 0.000000 0.002024
vn -0.999998 0.000000 0.002215
vn 0.999991 0.000000 0.004282
vn -0.999991 0.000000 0.004196
vn -0.405385 0.000000 0.914146
vn -0.366108 0.000000 0.930573
vn -0.178473 0.000000 0.983945
vn 0.037958 0.000000 -0.999279
vn 0.015954 0.000000 0.999873
vn -0.999914 0.000000 -0.013128
vn -0.999883 0.000000 -0.015289
vn 0.999768 0.000000 0.021523
vn 0.999810 0.000000 0.019487
vn -0.999815 0.000000 -0.019217
vn 0.999877 0.000000 0.015698
vn -0.999780 0.000000 -0.020984
vn 0.999903 0.000000 0.013946
vn 0.135007 0.000000 0.990845
vn 0.113134 0.000000 -0.993580
# 34 normals

vt 0.000000 1.000000 0.000000
vt 0.250000 1.000000 0.000000
vt 0.250000 0.995197 0.000000
vt 0.000000 0.995197 0.000000
vt 0.500000 1.000000 0.000000
vt 0.500000 0.995197 0.000000
vt 0.750000 1.000000 0.000000
vt 0.750000 0.995197 0.000000
vt 1.000000 1.000000 0.000000
vt 1.000000 0.995197 0.000000
vt 0.250000 0.974722 0.000000
vt 0.000000 0.974722 0.000000
vt 0.500000 0.974722 0.000000
vt 0.750000 0.974722 0.000000
vt 1.000000 0.974722 0.000000
vt 0.250000 0.974477 0.000000
vt 0.000000 0.974477 0.000000
vt 0.500000 0.974477 0.000000
vt 0.750000 0.974477 0.000000
vt 1.000000 0.974477 0.000000
vt 0.250000 0.803335 0.000000
vt 0.000000 0.803335 0.000000
vt 0.500000 0.803335 0.000000
vt 0.750000 0.803335 0.000000
vt 1.000000 0.803335 0.000000
vt 0.250000 0.644251 0.000000
vt 0.000000 0.644251 0.000000
vt 0.500000 0.644251 0.000000
vt 0.750000 0.644251 0.000000
vt 1.000000 0.644251 0.000000
vt 0.250000 0.501079 0.000000
vt 0.000000 0.501079 0.000000
vt 0.500000 0.501079 0.000000
vt 0.750000 0.501079 0.000000
vt 1.000000 0.501079 0.000000
vt 0.250000 0.500992 0.000000
vt 0.000000 0.500992 0.000000
vt 0.500000 0.500992 0.000000
vt 0.750000 0.500992 0.000000
vt 1.000000 0.500992 0.000000
vt 0.250000 0.478614 0.000000
vt 0.000000 0.478614 0.000000
vt 0.500000 0.478614 0.000000
vt 0.750000 0.478614 0.000000
vt 1.000000 0.478614 0.000000
vt 0.250000 0.335462 0.000000
vt 0.000000 0.335462 0.000000
vt 0.500000 0.335462 0.000000
vt 0.750000 0.335462 0.000000
vt 1.000000 0.335462 0.000000
vt 0.250000 0.176354 0.000000
vt 0.000000 0.176354 0.000000
vt 0.500000 0.176354 0.000000
vt 0.750000 0.176354 0.000000
vt 1.000000 0.176354 0.000000
vt 0.250000 0.005227 0.000000
vt 0.000000 0.005227 0.000000
vt 0.500000 0.005227 0.000000
vt 0.750000 0.005227 0.000000
vt 1.000000 0.005227 0.000000
vt 0.250000 0.000000 0.000000
vt 0.000000 0.000000 0.000000
vt 0.500000 0.000000 0.000000
vt 0.750000 0.000000 0.000000
vt 1.000000 0.000000 0.000000
# 65 texture coordinates

o platform1
usemtl default
f 5/4/1 6/3/1 2/2/1 1/1/1
f 6/3/3 7/6/3 3/5/2 2/2/2
f 7/6/4 8/8/4 4/7/4 3/5/4
f 8/8/6 5/10/6 1/9/5 4/7/5
f 9/12/1 10/11/1 6/3/1 5/4/1
f 10/11/7 11/13/7 7/6/3 6/3/3
f 11/13/4 12/14/4 8/8/4 7/6/4
f 12/14/8 9/15/8 5/10/6 8/8/6
f 13/17/1 14/16/1 10/11/1 9/12/1
f 14/16/9 15/18/9 11/13/9 10/11/9
f 15/18/10 16/19/10 12/14/10 11/13/10
f 16/19/11 13/20/11 9/15/8 12/14/8
f 17/22/1 18/21/1 14/16/1 13/17/1
f 18/21/13 19/23/13 15/18/12 14/16/12
f 19/23/4 20/24/4 16/19/4 15/18/4
f 20/24/15 17/25/15 13/20/14 16/19/14
f 21/27/1 22/26/1 18/21/1 17/22/1
f 22/26/16 23/28/16 19/23/13 18/21/13
f 23/28/4 24/29/4 20/24/4 19/23/4
f 24/29/17 21/30/17 17/25/15 20/24/15
f 25/32/1 26/31/1 22/26/1 21/27/1
f 26/31/18 27/33/18 23/28/16 22/26/16
f 27/33/4 28/34/4 24/29/4 23/28/4
f 28/34/19 25/35/19 21/30/17 24/29/17
f 29/37/1 30/36/1 26/31/1 25/32/1
f 30/36/20 31/38/20 27/33/20 26/31/20
f 31/38/4 32/39/4 28/34/4 27/33/4
f 32/39/22 29/40/22 25/35/21 28/34/21
f 33/42/1 34/41/1 30/36/1 29/37/1
f 34/41/23 35/43/23 31/38/23 30/36/23
f 35/43/4 36/44/4 32/39/4 31/38/4
f 36/44/24 33/45/24 29/40/22 32/39/22
f 37/47/1 38/46/1 34/41/1 33/42/1
f 38/46/26 39/48/26 35/43/25 34/41/25
f 39/48/4 40/49/4 36/44/4 35/43/4
f 40/49/28 37/50/28 33/45/27 36/44/27
f 41/52/1 42/51/1 38/46/1 37/47/1
f 42/51/29 43/53/29 39/48/26 38/46/26
f 43/53/4 44/54/4 40/49/4 39/48/4
f 44/54/30 41/55/30 37/50/28 40/49/28
f 45/57/1 46/56/1 42/51/1 41/52/1
f 46/56/31 47/58/31 43/53/29 42/51/29
f 47/58/4 48/59/4 44/54/4 43/53/4
f 48/59/32 45/60/32 41/55/30 44/54/30
f 1/62/1 2/61/1 46/56/1 45/57/1
f 2/61/2 3/63/2 47/58/33 46/56/33
f 3/63/4 4/64/4 48/59/4 47/58/4
f 4/64/5 1/65/5 45/60/34 48/59/34

