# WaveFront *.obj file (generated by Cinema 4D)

mtllib ./platform11.mtl

v -0.434582 49.908004 -55.847818
v 0.391781 49.908004 -55.011202
v 0.391781 -0.091996 -55.011202
v -0.434582 -0.091996 -55.847818
v -0.609364 49.908004 -49.937936
v 0.566562 49.908004 -49.937936
v 0.566562 -0.091996 -49.937936
v -0.609364 -0.091996 -49.937936
v -0.609364 49.908004 -40.555223
v 0.566562 49.908004 -40.555223
v 0.566562 -0.091996 -40.555223
v -0.609364 -0.091996 -40.555223
v -0.026509 49.908004 0.038892
v -0.016293 49.908004 -1.136990
v -0.016293 -0.091996 -1.136990
v -0.026509 -0.091996 0.038892
v 1.261441 49.908004 -40.531815
v 0.085702 49.908004 -40.552761
v 0.085702 -0.091996 -40.552761
v 1.261441 -0.091996 -40.531815
v 1.342584 49.908004 -44.977024
v 0.166837 49.908004 -44.997552
v 0.166837 -0.091996 -44.997552
v 1.342584 -0.091996 -44.977024
v 1.424903 49.908004 -49.916179
v 0.249147 49.908004 -49.936174
v 0.249147 -0.091996 -49.936174
v 1.424903 -0.091996 -49.916179
v 1.354150 49.908004 -55.827289
v 0.510400 49.908004 -55.008212
v 0.510400 -0.091996 -55.008212
v 1.354150 -0.091996 -55.827289
# 32 vertices

vn 0.000000 1.000000 0.000000
vn 0.999407 0.000000 -0.034431
vn 0.999852 0.000000 -0.017218
vn 0.000000 -1.000000 0.000000
vn -0.999563 0.000000 -0.029561
vn -0.999891 0.000000 -0.014782
vn 0.999973 0.000000 0.007393
vn -0.999974 0.000000 0.007179
vn 0.999891 0.000000 0.014785
vn 0.000000 0.999996 0.000000
vn -0.999897 0.000000 0.014357
vn 0.000000 -0.999995 0.000000
vn -0.999993 0.000000 -0.002588
vn -0.999946 0.000000 -0.010420
vn 0.999497 0.000000 0.031730
vn 0.999688 0.000000 0.024991
vn -0.999848 0.000000 -0.017458
vn 0.999848 0.000000 0.017458
vn -0.999420 0.000000 -0.034057
vn 0.999997 0.000000 0.002348
vn -0.998676 0.000000 -0.051440
vn 0.999928 0.000000 -0.011969
vn -0.025205 0.000000 0.999682
vn 0.011475 0.000000 -0.999934
# 24 normals

vt 0.000000 1.000000 0.000000
vt 0.250000 1.000000 0.000000
vt 0.250000 0.950397 0.000000
vt 0.000000 0.950397 0.000000
vt 0.500000 1.000000 0.000000
vt 0.500000 0.950397 0.000000
vt 0.750000 1.000000 0.000000
vt 0.750000 0.950397 0.000000
vt 1.000000 1.000000 0.000000
vt 1.000000 0.950397 0.000000
vt 0.250000 0.865648 0.000000
vt 0.000000 0.865648 0.000000
vt 0.500000 0.865648 0.000000
vt 0.750000 0.865648 0.000000
vt 1.000000 0.865648 0.000000
vt 0.250000 0.504292 0.000000
vt 0.000000 0.504292 0.000000
vt 0.500000 0.504292 0.000000
vt 0.750000 0.504292 0.000000
vt 1.000000 0.504292 0.000000
vt 0.250000 0.142998 0.000000
vt 0.000000 0.142998 0.000000
vt 0.500000 0.142998 0.000000
vt 0.750000 0.142998 0.000000
vt 1.000000 0.142998 0.000000
vt 0.250000 0.102842 0.000000
vt 0.000000 0.102842 0.000000
vt 0.500000 0.102842 0.000000
vt 0.750000 0.102842 0.000000
vt 1.000000 0.102842 0.000000
vt 0.250000 0.058225 0.000000
vt 0.000000 0.058225 0.000000
vt 0.500000 0.058225 0.000000
vt 0.750000 0.058225 0.000000
vt 1.000000 0.058225 0.000000
vt 0.250000 0.008615 0.000000
vt 0.000000 0.008615 0.000000
vt 0.500000 0.008615 0.000000
vt 0.750000 0.008615 0.000000
vt 1.000000 0.008615 0.000000
vt 0.250000 0.000000 0.000000
vt 0.000000 0.000000 0.000000
vt 0.500000 0.000000 0.000000
vt 0.750000 0.000000 0.000000
vt 1.000000 0.000000 0.000000
# 45 texture coordinates

o platform11
usemtl default
f 5/4/1 6/3/1 2/2/1 1/1/1
f 6/3/3 7/6/3 3/5/2 2/2/2
f 7/6/4 8/8/4 4/7/4 3/5/4
f 8/8/6 5/10/6 1/9/5 4/7/5
f 9/12/1 10/11/1 6/3/1 5/4/1
f 10/11/7 11/13/7 7/6/3 6/3/3
f 11/13/4 12/14/4 8/8/4 7/6/4
f 12/14/8 9/15/8 5/10/6 8/8/6
f 13/17/1 14/16/1 10/11/1 9/12/1
f 14/16/9 15/18/9 11/13/7 10/11/7
f 15/18/10 16/19/10 12/14/10 11/13/10
f 16/19/11 13/20/11 9/15/8 12/14/8
f 17/22/12 18/21/12 14/16/12 13/17/12
f 18/21/14 19/23/14 15/18/13 14/16/13
f 19/23/4 20/24/4 16/19/4 15/18/4
f 20/24/16 17/25/16 13/20/15 16/19/15
f 21/27/1 22/26/1 18/21/1 17/22/1
f 22/26/17 23/28/17 19/23/14 18/21/14
f 23/28/4 24/29/4 20/24/4 19/23/4
f 24/29/18 21/30/18 17/25/16 20/24/16
f 25/32/1 26/31/1 22/26/1 21/27/1
f 26/31/19 27/33/19 23/28/17 22/26/17
f 27/33/4 28/34/4 24/29/4 23/28/4
f 28/34/20 25/35/20 21/30/18 24/29/18
f 29/37/1 30/36/1 26/31/1 25/32/1
f 30/36/21 31/38/21 27/33/19 26/31/19
f 31/38/4 32/39/4 28/34/4 27/33/4
f 32/39/22 29/40/22 25/35/20 28/34/20
f 1/42/1 2/41/1 30/36/1 29/37/1
f 2/41/23 3/43/23 31/38/23 30/36/23
f 3/43/4 4/44/4 32/39/4 31/38/4
f 4/44/24 1/45/24 29/40/24 32/39/24

