# WaveFront *.obj file (generated by Cinema 4D)

mtllib ./platform8.mtl

v 0.595688 -0.091996 -216.222213
v 1.423286 -0.091996 -215.386818
v 1.423286 49.908004 -215.386818
v 0.595688 49.908004 -216.222213
v 5.192541 -0.091996 -216.179402
v 4.350007 -0.091996 -215.359074
v 4.350007 49.908004 -215.359074
v 5.192541 49.908004 -216.179402
v 3.228501 -0.091996 -102.715740
v 2.409973 -0.091996 -103.560022
v 2.409973 49.908004 -103.560022
v 3.228501 49.908004 -102.715740
v 0.590908 -0.091996 -102.749669
v 1.428066 -0.091996 -103.575482
v 1.428066 49.908004 -103.575482
v 0.590908 49.908004 -102.749669
# 16 vertices

vn 0.000000 -1.000000 0.000000
vn -0.009483 0.000000 0.999955
vn 0.000000 1.000000 0.000000
vn 0.009314 0.000000 -0.999957
vn -0.999850 0.000000 -0.017350
vn 0.999850 0.000000 0.017307
vn 0.015748 0.000000 -0.999876
vn -0.012865 0.000000 0.999917
vn 1.000000 0.000000 -0.000043
vn -1.000000 0.000000 -0.000042
# 10 normals

vt 0.000000 1.000000 0.000000
vt 0.250000 1.000000 0.000000
vt 0.250000 0.983705 0.000000
vt 0.000000 0.983705 0.000000
vt 0.500000 1.000000 0.000000
vt 0.500000 0.983705 0.000000
vt 0.750000 1.000000 0.000000
vt 0.750000 0.983705 0.000000
vt 1.000000 1.000000 0.000000
vt 1.000000 0.983705 0.000000
vt 0.250000 0.495759 0.000000
vt 0.000000 0.495759 0.000000
vt 0.500000 0.495759 0.000000
vt 0.750000 0.495759 0.000000
vt 1.000000 0.495759 0.000000
vt 0.250000 0.487919 0.000000
vt 0.000000 0.487919 0.000000
vt 0.500000 0.487919 0.000000
vt 0.750000 0.487919 0.000000
vt 1.000000 0.487919 0.000000
vt 0.250000 0.000000 0.000000
vt 0.000000 0.000000 0.000000
vt 0.500000 0.000000 0.000000
vt 0.750000 0.000000 0.000000
vt 1.000000 0.000000 0.000000
# 25 texture coordinates

o platform8
usemtl default
f 5/4/1 6/3/1 2/2/1 1/1/1
f 6/3/2 7/6/2 3/5/2 2/2/2
f 7/6/3 8/8/3 4/7/3 3/5/3
f 8/8/4 5/10/4 1/9/4 4/7/4
f 9/12/1 10/11/1 6/3/1 5/4/1
f 10/11/5 11/13/5 7/6/5 6/3/5
f 11/13/3 12/14/3 8/8/3 7/6/3
f 12/14/6 9/15/6 5/10/6 8/8/6
f 13/17/1 14/16/1 10/11/1 9/12/1
f 14/16/7 15/18/7 11/13/7 10/11/7
f 15/18/3 16/19/3 12/14/3 11/13/3
f 16/19/8 13/20/8 9/15/8 12/14/8
f 1/22/1 2/21/1 14/16/1 13/17/1
f 2/21/9 3/23/9 15/18/9 14/16/9
f 3/23/3 4/24/3 16/19/3 15/18/3
f 4/24/10 1/25/10 13/20/10 16/19/10

