# WaveFront *.obj file (generated by Cinema 4D)

mtllib ./platform3.mtl

v -2.223422 49.908004 -406.855070
v -2.229302 49.908004 -405.679158
v -2.229302 -0.091996 -405.679158
v -2.223422 -0.091996 -406.855070
v -2.665633 49.908004 -406.682867
v -1.834128 49.908004 -405.851361
v -1.834128 -0.091996 -405.851361
v -2.665633 -0.091996 -406.682867
v -2.837844 49.908004 -365.638875
v -1.661918 49.908004 -365.638875
v -1.661918 -0.091996 -365.638875
v -2.837844 -0.091996 -365.638875
v -2.837844 49.908004 -329.079339
v -1.661918 49.908004 -329.079339
v -1.661918 -0.091996 -329.079339
v -2.837844 -0.091996 -329.079339
v -2.837844 49.908004 -296.165174
v -1.661918 49.908004 -296.165174
v -1.661918 -0.091996 -296.165174
v -2.837844 -0.091996 -296.165174
v -2.665633 49.908004 -266.127848
v -1.834128 49.908004 -266.959353
v -1.834128 -0.091996 -266.959353
v -2.665633 -0.091996 -266.127848
v -2.229347 49.908004 -265.955645
v -2.223378 49.908004 -267.131556
v -2.223378 -0.091996 -267.131556
v -2.229347 -0.091996 -265.955645
v 2.816758 49.908004 -266.075110
v 1.996814 49.908004 -266.918018
v 1.996814 -0.091996 -266.918018
v 2.816758 -0.091996 -266.075110
v 3.512068 49.908004 -296.107962
v 2.336318 49.908004 -296.128312
v 2.336318 -0.091996 -296.128312
v 3.512068 -0.091996 -296.107962
v 4.076513 49.908004 -329.022154
v 2.900762 49.908004 -329.042450
v 2.900762 -0.091996 -329.042450
v 4.076513 -0.091996 -329.022154
v 4.711512 49.908004 -365.569865
v 3.535763 49.908004 -365.590292
v 3.535763 -0.091996 -365.590292
v 4.711512 -0.091996 -365.569865
v 5.250596 49.908004 -406.606583
v 4.407790 49.908004 -405.786534
v 4.407790 -0.091996 -405.786534
v 5.250596 -0.091996 -406.606583
# 48 vertices

vn 0.000000 1.000000 0.000000
vn -0.399438 0.000000 -0.916756
vn 0.000000 1.000000 0.000000
vn -0.168260 0.000000 -0.985743
vn -0.362885 0.000000 -0.931834
vn 0.999991 0.000000 -0.004282
vn 0.999998 0.000000 -0.002141
vn 0.000000 -1.000000 0.000000
vn -0.999991 0.000000 -0.004196
vn -0.999998 0.000000 -0.002098
vn 1.000000 0.000000 0.000000
vn -1.000000 0.000000 0.000000
vn 0.999996 0.000000 0.002948
vn -0.999996 0.000000 0.002867
vn 0.999983 0.000000 0.005896
vn -0.999984 0.000000 0.005733
vn 0.000000 -1.000000 0.000000
vn -0.404590 0.000000 0.914498
vn 0.000000 0.999999 0.000000
vn -0.367096 0.000000 0.930183
vn -0.175200 0.000000 0.984533
vn 0.050533 0.000000 -0.998722
vn 0.023664 0.000000 0.999720
vn -0.999929 0.000000 -0.011622
vn -0.999897 0.000000 -0.014384
vn 0.999732 0.000000 0.023145
vn 0.999797 0.000000 0.020146
vn -0.999851 0.000000 -0.017259
vn 0.999851 0.000000 0.017259
vn -0.999809 0.000000 -0.019531
vn 0.999884 0.000000 0.015254
vn -0.999765 0.000000 -0.021689
vn 0.999910 0.000000 0.013135
vn 0.016174 0.000000 0.999869
vn 0.033227 0.000000 -0.999448
# 35 normals

vt 0.000000 1.000000 0.000000
vt 0.250000 1.000000 0.000000
vt 0.250000 0.999919 0.000000
vt 0.000000 0.999919 0.000000
vt 0.500000 1.000000 0.000000
vt 0.500000 0.999919 0.000000
vt 0.750000 1.000000 0.000000
vt 0.750000 0.999919 0.000000
vt 1.000000 1.000000 0.000000
vt 1.000000 0.999919 0.000000
vt 0.250000 0.860390 0.000000
vt 0.000000 0.860390 0.000000
vt 0.500000 0.860390 0.000000
vt 0.750000 0.860390 0.000000
vt 1.000000 0.860390 0.000000
vt 0.250000 0.734834 0.000000
vt 0.000000 0.734834 0.000000
vt 0.500000 0.734834 0.000000
vt 0.750000 0.734834 0.000000
vt 1.000000 0.734834 0.000000
vt 0.250000 0.621797 0.000000
vt 0.000000 0.621797 0.000000
vt 0.500000 0.621797 0.000000
vt 0.750000 0.621797 0.000000
vt 1.000000 0.621797 0.000000
vt 0.250000 0.520068 0.000000
vt 0.000000 0.520068 0.000000
vt 0.500000 0.520068 0.000000
vt 0.750000 0.520068 0.000000
vt 1.000000 0.520068 0.000000
vt 0.250000 0.519987 0.000000
vt 0.000000 0.519987 0.000000
vt 0.500000 0.519987 0.000000
vt 0.750000 0.519987 0.000000
vt 1.000000 0.519987 0.000000
vt 0.250000 0.504075 0.000000
vt 0.000000 0.504075 0.000000
vt 0.500000 0.504075 0.000000
vt 0.750000 0.504075 0.000000
vt 1.000000 0.504075 0.000000
vt 0.250000 0.402330 0.000000
vt 0.000000 0.402330 0.000000
vt 0.500000 0.402330 0.000000
vt 0.750000 0.402330 0.000000
vt 1.000000 0.402330 0.000000
vt 0.250000 0.289277 0.000000
vt 0.000000 0.289277 0.000000
vt 0.500000 0.289277 0.000000
vt 0.750000 0.289277 0.000000
vt 1.000000 0.289277 0.000000
vt 0.250000 0.163742 0.000000
vt 0.000000 0.163742 0.000000
vt 0.500000 0.163742 0.000000
vt 0.750000 0.163742 0.000000
vt 1.000000 0.163742 0.000000
vt 0.250000 0.024232 0.000000
vt 0.000000 0.024232 0.000000
vt 0.500000 0.024232 0.000000
vt 0.750000 0.024232 0.000000
vt 1.000000 0.024232 0.000000
vt 0.250000 0.000000 0.000000
vt 0.000000 0.000000 0.000000
vt 0.500000 0.000000 0.000000
vt 0.750000 0.000000 0.000000
vt 1.000000 0.000000 0.000000
# 65 texture coordinates

o platform3
usemtl default
f 5/4/1 6/3/1 2/2/1 1/1/1
f 6/3/2 7/6/2 3/5/2 2/2/2
f 7/6/3 8/8/3 4/7/3 3/5/3
f 8/8/5 5/10/5 1/9/4 4/7/4
f 9/12/1 10/11/1 6/3/1 5/4/1
f 10/11/7 11/13/7 7/6/6 6/3/6
f 11/13/8 12/14/8 8/8/8 7/6/8
f 12/14/10 9/15/10 5/10/9 8/8/9
f 13/17/1 14/16/1 10/11/1 9/12/1
f 14/16/11 15/18/11 11/13/7 10/11/7
f 15/18/8 16/19/8 12/14/8 11/13/8
f 16/19/12 13/20/12 9/15/10 12/14/10
f 17/22/1 18/21/1 14/16/1 13/17/1
f 18/21/13 19/23/13 15/18/11 14/16/11
f 19/23/8 20/24/8 16/19/8 15/18/8
f 20/24/14 17/25/14 13/20/12 16/19/12
f 21/27/1 22/26/1 18/21/1 17/22/1
f 22/26/15 23/28/15 19/23/13 18/21/13
f 23/28/8 24/29/8 20/24/8 19/23/8
f 24/29/16 21/30/16 17/25/14 20/24/14
f 25/32/17 26/31/17 22/26/17 21/27/17
f 26/31/18 27/33/18 23/28/18 22/26/18
f 27/33/19 28/34/19 24/29/19 23/28/19
f 28/34/21 25/35/21 21/30/20 24/29/20
f 29/37/1 30/36/1 26/31/1 25/32/1
f 30/36/22 31/38/22 27/33/22 26/31/22
f 31/38/8 32/39/8 28/34/8 27/33/8
f 32/39/23 29/40/23 25/35/21 28/34/21
f 33/42/1 34/41/1 30/36/1 29/37/1
f 34/41/25 35/43/25 31/38/24 30/36/24
f 35/43/8 36/44/8 32/39/8 31/38/8
f 36/44/27 33/45/27 29/40/26 32/39/26
f 37/47/1 38/46/1 34/41/1 33/42/1
f 38/46/28 39/48/28 35/43/25 34/41/25
f 39/48/8 40/49/8 36/44/8 35/43/8
f 40/49/29 37/50/29 33/45/27 36/44/27
f 41/52/1 42/51/1 38/46/1 37/47/1
f 42/51/30 43/53/30 39/48/28 38/46/28
f 43/53/8 44/54/8 40/49/8 39/48/8
f 44/54/31 41/55/31 37/50/29 40/49/29
f 45/57/1 46/56/1 42/51/1 41/52/1
f 46/56/32 47/58/32 43/53/30 42/51/30
f 47/58/8 48/59/8 44/54/8 43/53/8
f 48/59/33 45/60/33 41/55/31 44/54/31
f 1/62/1 2/61/1 46/56/1 45/57/1
f 2/61/34 3/63/34 47/58/34 46/56/34
f 3/63/8 4/64/8 48/59/8 47/58/8
f 4/64/4 1/65/4 45/60/35 48/59/35

