# WaveFront *.obj file (generated by Cinema 4D)

mtllib ./platform4.mtl

v -1.163615 49.908004 -366.256347
v -1.169059 49.908004 -365.080434
v -1.169059 -0.091996 -365.080434
v -1.163615 -0.091996 -366.256347
v -1.606784 49.908004 -366.084143
v -0.775279 49.908004 -365.252638
v -0.775279 -0.091996 -365.252638
v -1.606784 -0.091996 -366.084143
v -1.778994 49.908004 -329.108855
v -0.603068 49.908004 -329.108855
v -0.603068 -0.091996 -329.108855
v -1.778994 -0.091996 -329.108855
v -1.778994 49.908004 -296.194689
v -0.603068 49.908004 -296.194689
v -0.603068 -0.091996 -296.194689
v -1.778994 -0.091996 -296.194689
v -1.778994 49.908004 -266.572974
v -0.603068 49.908004 -266.573259
v -0.603068 -0.091996 -266.573259
v -1.778994 -0.091996 -266.572974
v -1.593748 49.908004 -239.510783
v -0.762444 49.908004 -240.342490
v -0.762444 -0.091996 -240.342490
v -1.593748 -0.091996 -239.510783
v -1.169649 49.908004 -239.338682
v -1.163025 49.908004 -240.514590
v -1.163025 -0.091996 -240.514590
v -1.169649 -0.091996 -239.338682
v 3.417991 49.908004 -239.457969
v 2.598409 49.908004 -240.301229
v 2.598409 -0.091996 -240.301229
v 3.417991 -0.091996 -239.457969
v 4.054686 49.908004 -266.515886
v 2.878937 49.908004 -266.536273
v 2.878937 -0.091996 -266.536273
v 4.054686 -0.091996 -266.515886
v 4.572093 49.908004 -296.137477
v 3.396344 49.908004 -296.157827
v 3.396344 -0.091996 -296.157827
v 4.572093 -0.091996 -296.137477
v 5.136538 49.908004 -329.051670
v 3.960788 49.908004 -329.071966
v 3.960788 -0.091996 -329.071966
v 5.136538 -0.091996 -329.051670
v 5.604915 49.908004 -366.019774
v 4.762411 49.908004 -365.199414
v 4.762411 -0.091996 -365.199414
v 5.604915 -0.091996 -366.019774
# 48 vertices

vn 0.000000 -0.999999 0.000000
vn -0.400626 0.000000 -0.916242
vn 0.000000 0.999996 0.000000
vn -0.167060 0.000000 -0.985947
vn -0.362204 0.000000 -0.932099
vn 0.000000 1.000000 0.000000
vn 0.999989 0.000000 -0.004765
vn 0.999997 0.000000 -0.002382
vn 0.000000 -1.000000 0.000000
vn -0.999989 0.000000 -0.004657
vn -0.999997 0.000000 -0.002329
vn 1.000000 0.000000 0.000000
vn -1.000000 0.000000 0.000000
vn 0.999995 0.000000 0.003038
vn -0.999994 0.000000 0.003423
vn 0.999982 0.000000 0.006076
vn -0.999977 0.000000 0.006845
vn -0.394746 0.000000 0.918790
vn -0.376026 0.000000 0.926605
vn -0.178789 0.000000 0.983887
vn 0.056633 0.000000 -0.998395
vn 0.025991 0.000000 0.999662
vn -0.999943 0.000000 -0.010692
vn -0.999901 0.000000 -0.014078
vn 0.999723 0.000000 0.023524
vn 0.999790 0.000000 0.020495
vn -0.999850 0.000000 -0.017306
vn 0.999850 0.000000 0.017306
vn -0.999807 0.000000 -0.019665
vn 0.999889 0.000000 0.014908
vn -0.999754 0.000000 -0.022183
vn 0.999920 0.000000 0.012669
vn 0.000000 1.000000 0.000000
vn 0.020051 0.000000 0.999799
vn 0.034930 0.000000 -0.999386
# 35 normals

vt 0.000000 1.000000 0.000000
vt 0.250000 1.000000 0.000000
vt 0.250000 0.999906 0.000000
vt 0.000000 0.999906 0.000000
vt 0.500000 1.000000 0.000000
vt 0.500000 0.999906 0.000000
vt 0.750000 1.000000 0.000000
vt 0.750000 0.999906 0.000000
vt 1.000000 1.000000 0.000000
vt 1.000000 0.999906 0.000000
vt 0.250000 0.860393 0.000000
vt 0.000000 0.860393 0.000000
vt 0.500000 0.860393 0.000000
vt 0.750000 0.860393 0.000000
vt 1.000000 0.860393 0.000000
vt 0.250000 0.734792 0.000000
vt 0.000000 0.734792 0.000000
vt 0.500000 0.734792 0.000000
vt 0.750000 0.734792 0.000000
vt 1.000000 0.734792 0.000000
vt 0.250000 0.621755 0.000000
vt 0.000000 0.621755 0.000000
vt 0.500000 0.621755 0.000000
vt 0.750000 0.621755 0.000000
vt 1.000000 0.621755 0.000000
vt 0.250000 0.520071 0.000000
vt 0.000000 0.520071 0.000000
vt 0.500000 0.520071 0.000000
vt 0.750000 0.520071 0.000000
vt 1.000000 0.520071 0.000000
vt 0.250000 0.520026 0.000000
vt 0.000000 0.520026 0.000000
vt 0.500000 0.520026 0.000000
vt 0.750000 0.520026 0.000000
vt 1.000000 0.520026 0.000000
vt 0.250000 0.504095 0.000000
vt 0.000000 0.504095 0.000000
vt 0.500000 0.504095 0.000000
vt 0.750000 0.504095 0.000000
vt 1.000000 0.504095 0.000000
vt 0.250000 0.402396 0.000000
vt 0.000000 0.402396 0.000000
vt 0.500000 0.402396 0.000000
vt 0.750000 0.402396 0.000000
vt 1.000000 0.402396 0.000000
vt 0.250000 0.289342 0.000000
vt 0.000000 0.289342 0.000000
vt 0.500000 0.289342 0.000000
vt 0.750000 0.289342 0.000000
vt 1.000000 0.289342 0.000000
vt 0.250000 0.163722 0.000000
vt 0.000000 0.163722 0.000000
vt 0.500000 0.163722 0.000000
vt 0.750000 0.163722 0.000000
vt 1.000000 0.163722 0.000000
vt 0.250000 0.024233 0.000000
vt 0.000000 0.024233 0.000000
vt 0.500000 0.024233 0.000000
vt 0.750000 0.024233 0.000000
vt 1.000000 0.024233 0.000000
vt 0.250000 0.000000 0.000000
vt 0.000000 0.000000 0.000000
vt 0.500000 0.000000 0.000000
vt 0.750000 0.000000 0.000000
vt 1.000000 0.000000 0.000000
# 65 texture coordinates

o platform4
usemtl default
f 5/4/1 6/3/1 2/2/1 1/1/1
f 6/3/2 7/6/2 3/5/2 2/2/2
f 7/6/3 8/8/3 4/7/3 3/5/3
f 8/8/5 5/10/5 1/9/4 4/7/4
f 9/12/6 10/11/6 6/3/6 5/4/6
f 10/11/8 11/13/8 7/6/7 6/3/7
f 11/13/9 12/14/9 8/8/9 7/6/9
f 12/14/11 9/15/11 5/10/10 8/8/10
f 13/17/6 14/16/6 10/11/6 9/12/6
f 14/16/12 15/18/12 11/13/8 10/11/8
f 15/18/9 16/19/9 12/14/9 11/13/9
f 16/19/13 13/20/13 9/15/11 12/14/11
f 17/22/6 18/21/6 14/16/6 13/17/6
f 18/21/14 19/23/14 15/18/12 14/16/12
f 19/23/9 20/24/9 16/19/9 15/18/9
f 20/24/15 17/25/15 13/20/13 16/19/13
f 21/27/6 22/26/6 18/21/6 17/22/6
f 22/26/16 23/28/16 19/23/14 18/21/14
f 23/28/9 24/29/9 20/24/9 19/23/9
f 24/29/17 21/30/17 17/25/15 20/24/15
f 25/32/6 26/31/6 22/26/6 21/27/6
f 26/31/18 27/33/18 23/28/18 22/26/18
f 27/33/3 28/34/3 24/29/3 23/28/3
f 28/34/20 25/35/20 21/30/19 24/29/19
f 29/37/6 30/36/6 26/31/6 25/32/6
f 30/36/21 31/38/21 27/33/21 26/31/21
f 31/38/9 32/39/9 28/34/9 27/33/9
f 32/39/22 29/40/22 25/35/20 28/34/20
f 33/42/6 34/41/6 30/36/6 29/37/6
f 34/41/24 35/43/24 31/38/23 30/36/23
f 35/43/9 36/44/9 32/39/9 31/38/9
f 36/44/26 33/45/26 29/40/25 32/39/25
f 37/47/6 38/46/6 34/41/6 33/42/6
f 38/46/27 39/48/27 35/43/24 34/41/24
f 39/48/9 40/49/9 36/44/9 35/43/9
f 40/49/28 37/50/28 33/45/26 36/44/26
f 41/52/6 42/51/6 38/46/6 37/47/6
f 42/51/29 43/53/29 39/48/27 38/46/27
f 43/53/9 44/54/9 40/49/9 39/48/9
f 44/54/30 41/55/30 37/50/28 40/49/28
f 45/57/6 46/56/6 42/51/6 41/52/6
f 46/56/31 47/58/31 43/53/29 42/51/29
f 47/58/9 48/59/9 44/54/9 43/53/9
f 48/59/32 45/60/32 41/55/30 44/54/30
f 1/62/33 2/61/33 46/56/6 45/57/6
f 2/61/34 3/63/34 47/58/34 46/56/34
f 3/63/9 4/64/9 48/59/9 47/58/9
f 4/64/4 1/65/4 45/60/35 48/59/35

