# WaveFront *.obj file (generated by Cinema 4D)

mtllib ./platform10.mtl

v 0.676464 49.908004 -104.407279
v 0.668394 49.908004 -103.231381
v 0.668394 -0.091996 -103.231381
v 0.676464 -0.091996 -104.407279
v 0.244917 49.908004 -104.235083
v 1.076422 49.908004 -103.403578
v 1.076422 -0.091996 -103.403578
v 0.244917 -0.091996 -104.235083
v 0.072707 49.908004 -84.192714
v 1.248632 49.908004 -84.193541
v 1.248632 -0.091996 -84.193541
v 0.072707 -0.091996 -84.192714
v 0.084466 49.908004 -75.831881
v 1.260392 49.908004 -75.832708
v 1.260392 -0.091996 -75.832708
v 0.084466 -0.091996 -75.831881
v 0.254121 49.908004 -55.016799
v 1.090737 49.908004 -55.843162
v 1.090737 -0.091996 -55.843162
v 0.254121 -0.091996 -55.016799
v 2.035684 49.908004 -54.996386
v 1.216525 49.908004 -55.840056
v 1.216525 -0.091996 -55.840056
v 2.035684 -0.091996 -54.996386
v 2.318628 49.908004 -61.509396
v 1.142897 49.908004 -61.530805
v 1.142897 -0.091996 -61.530805
v 2.318628 -0.091996 -61.509396
v 2.449156 49.908004 -68.283939
v 1.273424 49.908004 -68.305280
v 1.273424 -0.091996 -68.305280
v 2.449156 -0.091996 -68.283939
v 2.577344 49.908004 -75.809392
v 1.401587 49.908004 -75.829326
v 1.401587 -0.091996 -75.829326
v 2.577344 -0.091996 -75.809392
v 2.718451 49.908004 -84.171162
v 1.542703 49.908004 -84.191574
v 1.542703 -0.091996 -84.191574
v 2.718451 -0.091996 -84.171162
v 2.884256 49.908004 -93.460947
v 1.708509 49.908004 -93.481417
v 1.708509 -0.091996 -93.481417
v 2.884256 -0.091996 -93.460947
v 2.893680 49.908004 -104.203959
v 2.049511 49.908004 -103.385313
v 2.049511 -0.091996 -103.385313
v 2.893680 -0.091996 -104.203959
# 48 vertices

vn 0.000000 -0.999998 0.000000
vn -0.388813 0.000000 -0.921317
vn 0.000000 1.000000 0.000000
vn -0.143609 0.000000 -0.989635
vn -0.370605 0.000000 -0.928791
vn 0.000000 1.000000 0.000000
vn 0.999960 0.000000 -0.008964
vn 0.999987 0.000000 -0.005185
vn 0.000000 -1.000000 0.000000
vn -0.999963 0.000000 -0.008592
vn -0.999994 0.000000 -0.003593
vn 0.999994 0.000000 0.003540
vn -0.999989 0.000000 0.004778
vn 0.999964 0.000000 0.008487
vn -0.999967 0.000000 0.008150
vn 0.024678 0.000000 -0.999695
vn -0.011457 0.000000 0.999934
vn -0.999916 0.000000 0.012937
vn -0.999995 0.000000 -0.003164
vn 0.999058 0.000000 0.043402
vn 0.999509 0.000000 0.031335
vn -0.999835 0.000000 -0.018148
vn 0.999835 0.000000 0.018148
vn -0.999856 0.000000 -0.016952
vn 0.999856 0.000000 0.016952
vn -0.999849 0.000000 -0.017359
vn 0.999849 0.000000 0.017359
vn -0.999659 0.000000 -0.026129
vn 0.999956 0.000000 0.009362
vn -0.999408 0.000000 -0.034411
vn 1.000000 0.000000 0.000877
vn 0.110768 0.000000 0.993846
vn 0.091319 0.000000 -0.995822
# 33 normals

vt 0.000000 1.000000 0.000000
vt 0.250000 1.000000 0.000000
vt 0.250000 0.999882 0.000000
vt 0.000000 0.999882 0.000000
vt 0.500000 1.000000 0.000000
vt 0.500000 0.999882 0.000000
vt 0.750000 1.000000 0.000000
vt 0.750000 0.999882 0.000000
vt 1.000000 1.000000 0.000000
vt 1.000000 0.999882 0.000000
vt 0.250000 0.802709 0.000000
vt 0.000000 0.802709 0.000000
vt 0.500000 0.802709 0.000000
vt 0.750000 0.802709 0.000000
vt 1.000000 0.802709 0.000000
vt 0.250000 0.718713 0.000000
vt 0.000000 0.718713 0.000000
vt 0.500000 0.718713 0.000000
vt 0.750000 0.718713 0.000000
vt 1.000000 0.718713 0.000000
vt 0.250000 0.513742 0.000000
vt 0.000000 0.513742 0.000000
vt 0.500000 0.513742 0.000000
vt 0.750000 0.513742 0.000000
vt 1.000000 0.513742 0.000000
vt 0.250000 0.504161 0.000000
vt 0.000000 0.504161 0.000000
vt 0.500000 0.504161 0.000000
vt 0.750000 0.504161 0.000000
vt 1.000000 0.504161 0.000000
vt 0.250000 0.442850 0.000000
vt 0.000000 0.442850 0.000000
vt 0.500000 0.442850 0.000000
vt 0.750000 0.442850 0.000000
vt 1.000000 0.442850 0.000000
vt 0.250000 0.374778 0.000000
vt 0.000000 0.374778 0.000000
vt 0.500000 0.374778 0.000000
vt 0.750000 0.374778 0.000000
vt 1.000000 0.374778 0.000000
vt 0.250000 0.299170 0.000000
vt 0.000000 0.299170 0.000000
vt 0.500000 0.299170 0.000000
vt 0.750000 0.299170 0.000000
vt 1.000000 0.299170 0.000000
vt 0.250000 0.215150 0.000000
vt 0.000000 0.215150 0.000000
vt 0.500000 0.215150 0.000000
vt 0.750000 0.215150 0.000000
vt 1.000000 0.215150 0.000000
vt 0.250000 0.121806 0.000000
vt 0.000000 0.121806 0.000000
vt 0.500000 0.121806 0.000000
vt 0.750000 0.121806 0.000000
vt 1.000000 0.121806 0.000000
vt 0.250000 0.018077 0.000000
vt 0.000000 0.018077 0.000000
vt 0.500000 0.018077 0.000000
vt 0.750000 0.018077 0.000000
vt 1.000000 0.018077 0.000000
vt 0.250000 0.000000 0.000000
vt 0.000000 0.000000 0.000000
vt 0.500000 0.000000 0.000000
vt 0.750000 0.000000 0.000000
vt 1.000000 0.000000 0.000000
# 65 texture coordinates

o platform10
usemtl default
f 5/4/1 6/3/1 2/2/1 1/1/1
f 6/3/2 7/6/2 3/5/2 2/2/2
f 7/6/3 8/8/3 4/7/3 3/5/3
f 8/8/5 5/10/5 1/9/4 4/7/4
f 9/12/6 10/11/6 6/3/6 5/4/6
f 10/11/8 11/13/8 7/6/7 6/3/7
f 11/13/9 12/14/9 8/8/9 7/6/9
f 12/14/11 9/15/11 5/10/10 8/8/10
f 13/17/6 14/16/6 10/11/6 9/12/6
f 14/16/12 15/18/12 11/13/8 10/11/8
f 15/18/9 16/19/9 12/14/9 11/13/9
f 16/19/13 13/20/13 9/15/11 12/14/11
f 17/22/6 18/21/6 14/16/6 13/17/6
f 18/21/14 19/23/14 15/18/12 14/16/12
f 19/23/9 20/24/9 16/19/9 15/18/9
f 20/24/15 17/25/15 13/20/13 16/19/13
f 21/27/6 22/26/6 18/21/6 17/22/6
f 22/26/16 23/28/16 19/23/16 18/21/16
f 23/28/9 24/29/9 20/24/9 19/23/9
f 24/29/17 21/30/17 17/25/17 20/24/17
f 25/32/6 26/31/6 22/26/6 21/27/6
f 26/31/19 27/33/19 23/28/18 22/26/18
f 27/33/9 28/34/9 24/29/9 23/28/9
f 28/34/21 25/35/21 21/30/20 24/29/20
f 29/37/6 30/36/6 26/31/6 25/32/6
f 30/36/22 31/38/22 27/33/19 26/31/19
f 31/38/9 32/39/9 28/34/9 27/33/9
f 32/39/23 29/40/23 25/35/21 28/34/21
f 33/42/6 34/41/6 30/36/6 29/37/6
f 34/41/24 35/43/24 31/38/22 30/36/22
f 35/43/9 36/44/9 32/39/9 31/38/9
f 36/44/25 33/45/25 29/40/23 32/39/23
f 37/47/6 38/46/6 34/41/6 33/42/6
f 38/46/26 39/48/26 35/43/24 34/41/24
f 39/48/9 40/49/9 36/44/9 35/43/9
f 40/49/27 37/50/27 33/45/25 36/44/25
f 41/52/6 42/51/6 38/46/6 37/47/6
f 42/51/28 43/53/28 39/48/26 38/46/26
f 43/53/9 44/54/9 40/49/9 39/48/9
f 44/54/29 41/55/29 37/50/27 40/49/27
f 45/57/6 46/56/6 42/51/6 41/52/6
f 46/56/30 47/58/30 43/53/28 42/51/28
f 47/58/9 48/59/9 44/54/9 43/53/9
f 48/59/31 45/60/31 41/55/29 44/54/29
f 1/62/6 2/61/6 46/56/6 45/57/6
f 2/61/32 3/63/32 47/58/32 46/56/32
f 3/63/9 4/64/9 48/59/9 47/58/9
f 4/64/4 1/65/4 45/60/33 48/59/33

