# Blender 3.4.1
# www.blender.org
mtllib circle.mtl
o BezierCircle
v -1.000000 0.000000 0.000000
v -0.990868 0.000000 -0.135661
v -0.964268 0.000000 -0.265784
v -0.921393 0.000000 -0.389178
v -0.863435 0.000000 -0.504648
v -0.791589 0.000000 -0.611002
v -0.707047 0.000000 -0.707047
v -0.611002 0.000000 -0.791589
v -0.504648 0.000000 -0.863435
v -0.389178 0.000000 -0.921392
v -0.265784 0.000000 -0.964268
v -0.135661 0.000000 -0.990868
v 0.000000 0.000000 -1.000000
v 0.135661 0.000000 -0.990868
v 0.265784 0.000000 -0.964268
v 0.389178 0.000000 -0.921393
v 0.504648 0.000000 -0.863435
v 0.611002 0.000000 -0.791589
v 0.707047 0.000000 -0.707047
v 0.791589 0.000000 -0.611002
v 0.863435 0.000000 -0.504648
v 0.921392 0.000000 -0.389178
v 0.964268 0.000000 -0.265784
v 0.990868 0.000000 -0.135661
v 1.000000 0.000000 0.000000
v 0.990868 0.000000 0.135661
v 0.964268 0.000000 0.265784
v 0.921393 0.000000 0.389178
v 0.863435 0.000000 0.504648
v 0.791589 0.000000 0.611002
v 0.707047 0.000000 0.707047
v 0.611002 0.000000 0.791589
v 0.504648 0.000000 0.863435
v 0.389178 0.000000 0.921392
v 0.265784 0.000000 0.964268
v 0.135661 0.000000 0.990868
v 0.000000 0.000000 1.000000
v -0.135661 0.000000 0.990868
v -0.265784 0.000000 0.964268
v -0.389178 0.000000 0.921393
v -0.504648 0.000000 0.863435
v -0.611002 0.000000 0.791589
v -0.707047 0.000000 0.707047
v -0.791589 0.000000 0.611002
v -0.863435 0.000000 0.504648
v -0.921392 0.000000 0.389178
v -0.964268 0.000000 0.265784
v -0.990868 0.000000 0.135661
vn -0.0000 1.0000 -0.0000
s 0
f 35//1 34//1 36//1
f 11//1 10//1 12//1
f 40//1 39//1 38//1
f 12//1 10//1 9//1
f 36//1 33//1 32//1
f 16//1 14//1 17//1
f 13//1 12//1 8//1
f 17//1 14//1 18//1
f 13//1 8//1 7//1
f 18//1 13//1 19//1
f 30//1 26//1 25//1
f 25//1 20//1 19//1
f 24//1 21//1 20//1
f 5//1 2//1 6//1
f 24//1 22//1 21//1
f 7//1 6//1 1//1
f 24//1 23//1 22//1
f 4//1 3//1 2//1
f 25//1 24//1 20//1
f 5//1 4//1 2//1
f 44//1 43//1 1//1
f 30//1 29//1 26//1
f 48//1 47//1 46//1
f 29//1 28//1 26//1
f 48//1 46//1 45//1
f 48//1 45//1 44//1
f 1//1 48//1 44//1
f 12//1 9//1 8//1
f 31//1 30//1 25//1
f 31//1 25//1 19//1 13//1 7//1 1//1 43//1 37//1
f 42//1 37//1 43//1
f 37//1 32//1 31//1
f 41//1 38//1 42//1
f 37//1 36//1 32//1
f 40//1 38//1 41//1
f 38//1 37//1 42//1
f 16//1 15//1 14//1
f 36//1 34//1 33//1
f 14//1 13//1 18//1
f 2//1 1//1 6//1
f 28//1 27//1 26//1
